<svg width="233" height="51" viewBox="0 0 233 51" fill="none" xmlns="http://www.w3.org/2000/svg">
<g clip-path="url(#clip0_168_1742)">
<path fill-rule="evenodd" clip-rule="evenodd" d="M22.9151 6.25161L5.12861 14.7646V37.6976L0 40.1523V17.2193V10.9677L22.9151 0L45.8298 10.9677V12.5032V37.729V40.0323L22.9151 51V44.7482L40.7013 36.2354V30.861L22.9151 39.3741V33.1227L40.7013 24.6095V19.674L22.9151 28.1871V21.9355L39.299 14.0935L22.9151 6.25161ZM131.573 39.0072C133.443 39.9741 135.643 40.4575 138.172 40.4575C140.345 40.4575 142.242 40.0985 143.864 39.3802C145.487 38.6343 146.738 37.5711 147.618 36.1899C148.497 34.8088 148.936 33.179 148.936 31.3008C148.936 30.196 148.716 29.2017 148.277 28.3177C147.836 27.4063 147.191 26.6051 146.338 25.9147C145.513 25.1965 144.497 24.5888 143.287 24.0917C142.105 23.5944 140.757 23.1801 139.245 22.8487C138.31 22.6553 137.485 22.4343 136.77 22.1857C136.055 21.9371 135.464 21.6471 134.997 21.3156C134.529 20.9842 134.172 20.5975 133.924 20.1556C133.705 19.7136 133.594 19.2303 133.594 18.7054C133.594 17.9873 133.801 17.3795 134.213 16.8824C134.626 16.3575 135.189 15.957 135.904 15.6808C136.646 15.3771 137.512 15.2251 138.502 15.2251C139.822 15.2251 141.046 15.5566 142.172 16.2194C143.301 16.8824 144.276 17.8491 145.101 19.1198L148.648 15.6394C147.685 14.0097 146.352 12.7529 144.648 11.869C142.97 10.9851 140.922 10.5432 138.502 10.5432C136.633 10.5432 134.914 10.9023 133.347 11.6204C131.807 12.3386 130.57 13.333 129.635 14.6036C128.728 15.8465 128.274 17.2829 128.274 18.9126C128.274 20.128 128.453 21.219 128.81 22.1857C129.195 23.125 129.759 23.9812 130.501 24.7546C131.271 25.5003 132.206 26.1357 133.306 26.6604C134.433 27.1576 135.767 27.5581 137.306 27.862C138.104 28.0001 138.832 28.1796 139.492 28.4008C140.179 28.5939 140.771 28.8287 141.266 29.105C141.788 29.3812 142.215 29.6851 142.544 30.0165C142.901 30.3204 143.162 30.6793 143.327 31.0937C143.521 31.4803 143.617 31.9087 143.617 32.3781C143.617 33.0687 143.397 33.6764 142.956 34.2013C142.517 34.6984 141.911 35.085 141.142 35.3613C140.372 35.6375 139.52 35.7755 138.585 35.7755C136.963 35.7755 135.505 35.4303 134.213 34.7398C132.948 34.0218 131.642 32.7097 130.295 30.8037L126.831 34.7811C128.151 36.6319 129.731 38.0405 131.573 39.0072ZM110.116 40.2918C107.834 40.2918 105.799 39.8085 104.012 38.8417C102.225 37.8475 100.809 36.494 99.764 34.7813C98.7467 33.0412 98.2379 31.0802 98.2379 28.898V10.9992H103.599V28.5252C103.599 29.8235 103.888 30.9835 104.466 32.0053C105.07 33.0275 105.868 33.8422 106.858 34.4501C107.848 35.0302 108.933 35.32 110.116 35.32C111.381 35.32 112.522 35.0302 113.539 34.4501C114.556 33.8422 115.367 33.0275 115.972 32.0053C116.577 30.9835 116.88 29.8235 116.88 28.5252V10.9992H121.994V28.898C121.994 31.0802 121.471 33.0412 120.426 34.7813C119.409 36.494 118.007 37.8475 116.22 38.8417C114.433 39.8085 112.398 40.2918 110.116 40.2918ZM69.972 40.0426V11.0399H82.5508C84.2558 11.0399 85.8228 11.4542 87.2526 12.2829C88.6825 13.0839 89.8095 14.1888 90.6346 15.5975C91.4869 16.9786 91.9131 18.5392 91.9131 20.2793C91.9131 21.9367 91.4869 23.4559 90.6346 24.8369C89.8095 26.218 88.6825 27.3228 87.2526 28.1514C86.9867 28.3085 86.7148 28.4508 86.4369 28.5781L93.0678 40.084L86.7578 40.0426L80.7873 29.3944H75.2097V40.0426H69.972ZM75.2097 24.6711H82.5923C83.362 24.6711 84.0493 24.4916 84.6544 24.1325C85.2592 23.7459 85.7268 23.2349 86.0568 22.5995C86.3867 21.9367 86.5516 21.2047 86.5516 20.4035C86.5516 19.4921 86.3451 18.705 85.9329 18.042C85.5203 17.3791 84.9432 16.8542 84.2007 16.4675C83.4582 16.0809 82.606 15.8875 81.6438 15.8875H75.2097V24.6711ZM154.914 40.0435V11.0408H166.916C168.565 11.0408 170.05 11.4413 171.369 12.2423C172.717 13.0433 173.776 14.1344 174.545 15.5155C175.343 16.8966 175.741 18.4434 175.741 20.1559C175.741 21.8685 175.343 23.4291 174.545 24.8379C173.776 26.2188 172.717 27.3237 171.369 28.1523C170.05 28.9809 168.565 29.3953 166.916 29.3953H160.233V40.0435H154.914ZM160.233 24.465H166.544C167.259 24.465 167.891 24.2716 168.442 23.8849C169.02 23.4981 169.473 22.9871 169.802 22.3519C170.161 21.6889 170.339 20.9708 170.339 20.1974C170.339 19.3963 170.161 18.6782 169.802 18.0428C169.473 17.4076 169.02 16.9103 168.442 16.5513C167.891 16.1922 167.259 16.0127 166.544 16.0127H160.233V24.465ZM186.801 11.0408L175.542 40.0435H180.862L183.377 33.373H194.935L197.441 40.0435H202.968L191.791 11.0408H186.801ZM193.191 28.7324L191.214 23.4705C191.104 23.1666 190.926 22.6556 190.677 21.9375C190.458 21.2194 190.21 20.4322 189.936 19.5759C189.676 18.7659 189.428 18.0177 189.192 17.3314L189.152 17.4628C188.932 18.1533 188.698 18.8716 188.45 19.6173C188.203 20.3632 187.956 21.0813 187.709 21.7718C187.46 22.4624 187.242 23.0839 187.048 23.6362L185.128 28.7324H193.191ZM207.555 40.0435V11.0408H212.339L228.017 32.1947C227.923 31.4525 227.84 30.6853 227.764 29.8927C227.654 28.4562 227.572 26.8956 227.517 25.2107C227.462 23.5257 227.433 21.6889 227.433 19.7002V11.0408H232.713V40.0435H227.846L212.187 19.2614C212.298 20.418 212.39 21.4204 212.464 22.269C212.572 23.512 212.656 24.534 212.711 25.335C212.766 26.1361 212.793 26.7989 212.793 27.3237C212.821 27.8487 212.833 28.3458 212.833 28.8154V40.0435H207.555Z" fill="#114486"/>
</g>
<defs>
<clipPath id="clip0_168_1742">
<rect width="233" height="51" fill="white"/>
</clipPath>
</defs>
</svg>
