<svg width="316" height="50" viewBox="0 0 316 50" fill="none" xmlns="http://www.w3.org/2000/svg">
<g clip-path="url(#clip0_168_1746)">
<path d="M68.9366 20.6969H62.6895V16.0737H80.9529V20.6969H74.7085V35.1113H68.9366V20.6969Z" fill="black"/>
<path d="M83.9883 16.0735H100.73V20.5604H89.6977V23.444H99.6894V27.6078H89.6977V30.6245H100.882V35.1111H83.9883V16.0735Z" fill="black"/>
<path d="M110.385 25.4284L103.543 16.0737H110.177L113.862 21.4304L117.583 16.0737H124.065L117.227 25.3739L124.363 35.1113H117.731L113.747 29.3744L109.731 35.1113H103.246L110.385 25.4284Z" fill="black"/>
<path d="M127.092 16.0737H132.861V23.1999H140.27V16.0737H146.04V35.1113H140.27V27.8769H132.861V35.1113H127.092V16.0737Z" fill="black"/>
<path d="M166.046 25.5938C166.046 22.846 163.877 20.4517 160.695 20.4517C157.541 20.4517 155.427 22.7916 155.427 25.5938C155.427 28.3411 157.6 30.7299 160.753 30.7299C163.934 30.7299 166.046 28.3955 166.046 25.5938ZM149.51 25.5938C149.51 20.1258 154.327 15.6931 160.753 15.6931C167.178 15.6931 171.934 20.0742 171.934 25.5938C171.934 31.0589 167.116 35.494 160.695 35.494C154.265 35.494 149.51 31.1136 149.51 25.5938Z" fill="black"/>
<path d="M175.426 16.0737H181.198V23.1999H188.604V16.0737H194.376V35.1113H188.604V27.8769H181.198V35.1113H175.426V16.0737Z" fill="black"/>
<path d="M198.865 16.0732H204.578V26.7894L212.638 16.0732H218.018V35.1108H212.309V24.3951L204.248 35.1108H198.865V16.0732Z" fill="black"/>
<path d="M222.514 16.0732H228.283V23.7969L235.451 16.0732H242.293L234.411 24.2587L242.558 35.1108H235.63L230.398 28.042L228.283 30.1868V35.1108H222.514V16.0732Z" fill="black"/>
<path d="M259.132 25.5936C259.132 22.8458 256.966 20.4514 253.78 20.4514C250.627 20.4514 248.52 22.7913 248.52 25.5936C248.52 28.3409 250.685 30.7297 253.839 30.7297C257.022 30.7297 259.132 28.3953 259.132 25.5936ZM242.602 25.5936C242.602 20.1255 247.412 15.6929 253.839 15.6929C260.264 15.6929 265.026 20.0739 265.026 25.5936C265.026 31.0586 260.206 35.4938 253.78 35.4938C247.356 35.4938 242.602 31.1134 242.602 25.5936Z" fill="black"/>
<path d="M299.586 30.6796C301.489 30.6796 302.621 29.8916 302.621 28.397C302.621 27.0622 301.489 26.1924 299.616 26.1924H296.582V30.6796H299.586ZM290.812 16.0747H296.582V22.056H299.735C304.731 22.056 308.393 24.2331 308.393 28.527C308.393 32.6386 305.121 35.1123 300.035 35.1123H290.812V16.0747Z" fill="black"/>
<path d="M52.2796 39.8717L41.8683 49.3909L3.36134 49.3941L0.226562 46.5267V11.3105L10.6369 1.79346H49.1438L52.2796 4.65773V39.8717Z" fill="#E30713"/>
<path d="M49.1444 1.79297L37.4375 12.4982V28.1281L27.8493 16.0716H7.63042V19.8605H13.5892V34.3051L0.226562 46.5268V49.3935L3.36235 49.3911L18.0795 35.9305V19.8605H24.0363V35.1124H28.4701V23.059L38.062 35.1124H41.8688V14.1781L52.2796 4.66035V1.79297H49.1444Z" fill="#FEFEFE"/>
<path d="M270.136 16.0737V24.4254C270.136 26.4005 269.918 29.2548 268.493 30.2625C267.823 30.7387 266.721 31.1 266.021 31.1V35.5897H266.569C268.563 35.5897 270.798 34.8555 271.657 34.3554C275.137 32.3364 275.568 28.4937 275.568 24.1534V20.6966H280.546V35.1113H286.319V16.0737H270.136Z" fill="black"/>
</g>
<defs>
<clipPath id="clip0_168_1746">
<rect width="315" height="49" fill="white" transform="translate(0.226562 0.826172)"/>
</clipPath>
</defs>
</svg>
