<svg width="144" height="118" viewBox="0 0 144 118" fill="none" xmlns="http://www.w3.org/2000/svg">
<g clip-path="url(#clip0_168_1725)">
<path d="M54.1754 84.1586C45.4828 84.1586 38.7495 77.9624 39.7154 70.8583L43.5788 42.374C44.4066 36.314 50.6432 31.7292 58.0388 31.7292C66.7314 31.7292 73.4647 37.9254 72.4989 45.0295L68.6355 73.5138C67.8076 79.5965 61.5986 84.1586 54.1754 84.1586Z" fill="#F37021"/>
<path d="M124.791 85.067C116.098 85.067 109.365 78.8708 110.331 71.7668L114.194 43.2824C115.022 37.2224 121.258 32.6377 128.654 32.6377C137.347 32.6377 144.08 38.8339 143.114 45.9379L139.251 74.4223C138.45 80.505 132.214 85.067 124.791 85.067Z" fill="#00AEE6"/>
<path d="M89.3599 85.0671C80.6949 85.0671 73.934 78.8936 74.8723 71.8123L82.9026 10.6901C83.7028 4.60742 89.9394 0 97.3626 0C106.028 0 112.761 6.17349 111.823 13.2549L103.792 74.377C103.047 80.4824 96.8107 85.0671 89.3599 85.0671Z" fill="#00AEE6"/>
<path d="M14.7955 117.999C6.13047 117.999 -0.630433 111.826 0.307815 104.744L8.33811 43.6223C9.13838 37.5396 15.375 32.9321 22.7982 32.9321C31.4632 32.9321 38.1965 39.1056 37.2582 46.187L29.2279 107.309C28.4828 113.392 22.2463 117.999 14.7955 117.999Z" fill="#F37021"/>
<path d="M37.0664 95.9169C37.0664 95.7126 37.2044 95.6218 37.4527 95.6218H43.165C44.9587 95.6218 45.8694 96.3481 45.8694 97.8007V99.3895C45.8694 100.842 44.9587 101.568 43.165 101.568H38.9705V103.815C38.9705 104.02 38.8325 104.11 38.5842 104.11H37.4527C37.2044 104.11 37.0664 104.02 37.0664 103.815V95.9169ZM38.9429 97.0063V100.161H42.9167C43.6065 100.161 43.9653 99.8661 43.9653 99.2987V97.8461C43.9653 97.2787 43.6065 96.9836 42.9167 96.9836L38.9429 97.0063Z" fill="#64635E"/>
<path d="M48.1057 95.9166C48.1057 95.7124 48.2437 95.6216 48.4921 95.6216H54.1215C55.9153 95.6216 56.8259 96.3479 56.8259 97.8005V99.1396C56.8259 99.5935 56.7431 99.9566 56.55 100.229C56.3844 100.501 56.1912 100.706 55.998 100.842C55.7497 101.023 55.4737 101.137 55.1702 101.205L56.9639 103.815C56.9915 103.883 57.0191 103.951 56.9915 104.019C56.9639 104.087 56.8811 104.133 56.7431 104.133H55.4461C55.3082 104.133 55.1702 104.11 55.0874 104.042C55.0046 103.997 54.9218 103.906 54.8666 103.815L53.2109 101.318H49.9822V103.815C49.9822 104.019 49.8442 104.11 49.5959 104.11H48.4645C48.2161 104.11 48.0781 104.019 48.0781 103.815L48.1057 95.9166ZM49.9822 97.0061V99.9339H53.8732C54.5631 99.9339 54.9218 99.6616 54.9218 99.0715V97.8459C54.9218 97.2784 54.5631 96.9834 53.8732 96.9834L49.9822 97.0061Z" fill="#64635E"/>
<path d="M61.7903 104.178C59.9966 104.178 59.0859 103.452 59.0859 101.999V97.6642C59.0859 96.2116 59.9966 95.4854 61.7903 95.4854H65.8468C67.6405 95.4854 68.5512 96.2116 68.5512 97.6642V102.022C68.5512 103.475 67.6405 104.201 65.8468 104.201H61.7903V104.178ZM65.5985 102.794C66.2884 102.794 66.6471 102.521 66.6471 101.954V97.7323C66.6471 97.1649 66.2884 96.8925 65.5985 96.8925H62.0111C61.3212 96.8925 60.9624 97.1649 60.9624 97.7323V101.954C60.9624 102.521 61.3212 102.794 62.0111 102.794H65.5985Z" fill="#64635E"/>
<path d="M72.9685 103.815C72.9685 104.019 72.8306 104.11 72.5822 104.11H71.4508C71.2024 104.11 71.0645 104.019 71.0645 103.815V95.9166C71.0645 95.7124 71.2024 95.6216 71.4508 95.6216H78.9568C79.2051 95.6216 79.3431 95.7124 79.3431 95.9166V96.711C79.3431 96.9153 79.2051 97.0061 78.9568 97.0061H72.9685V99.4346H77.0251C77.2734 99.4346 77.4114 99.5254 77.4114 99.7297V100.524C77.4114 100.728 77.2734 100.819 77.0251 100.819H72.9685V103.815Z" fill="#64635E"/>
<path d="M80.9707 95.9171C80.9707 95.7129 81.1087 95.6221 81.357 95.6221H82.4885C82.7368 95.6221 82.8748 95.7129 82.8748 95.9171V99.1401H87.98V95.9171C87.98 95.7129 88.1179 95.6221 88.3663 95.6221H89.4977C89.7461 95.6221 89.8841 95.7129 89.8841 95.9171V103.816C89.8841 104.02 89.7461 104.111 89.4977 104.111H88.3663C88.1179 104.111 87.98 104.02 87.98 103.816V100.525H82.8748V103.816C82.8748 104.02 82.7368 104.111 82.4885 104.111H81.357C81.1087 104.111 80.9707 104.02 80.9707 103.816V95.9171Z" fill="#64635E"/>
<path d="M95.0716 104.178C93.2778 104.178 92.3672 103.452 92.3672 101.999V97.6642C92.3672 96.2116 93.2778 95.4854 95.0716 95.4854H99.1281C100.922 95.4854 101.832 96.2116 101.832 97.6642V102.022C101.832 103.475 100.922 104.201 99.1281 104.201H95.0716V104.178ZM98.9073 102.794C99.5972 102.794 99.956 102.521 99.956 101.954V97.7323C99.956 97.1649 99.5972 96.8925 98.9073 96.8925H95.3199C94.63 96.8925 94.2713 97.1649 94.2713 97.7323V101.954C94.2713 102.521 94.63 102.794 95.3199 102.794H98.9073Z" fill="#64635E"/>
<path d="M106.248 102.726H112.098C112.346 102.726 112.484 102.817 112.484 103.021V103.815C112.484 104.02 112.346 104.11 112.098 104.11H104.757C104.509 104.11 104.371 104.02 104.371 103.815V95.9169C104.371 95.7126 104.509 95.6218 104.757 95.6218H105.889C106.137 95.6218 106.275 95.7126 106.275 95.9169V102.726H106.248Z" fill="#64635E"/>
<path d="M116.376 104.178C114.583 104.178 113.672 103.452 113.672 101.999V97.6642C113.672 96.2116 114.583 95.4854 116.376 95.4854H120.433C122.226 95.4854 123.137 96.2116 123.137 97.6642V102.022C123.137 103.475 122.226 104.201 120.433 104.201H116.376V104.178ZM120.184 102.794C120.874 102.794 121.233 102.521 121.233 101.954V97.7323C121.233 97.1649 120.874 96.8925 120.184 96.8925H116.597C115.907 96.8925 115.548 97.1649 115.548 97.7323V101.954C115.548 102.521 115.907 102.794 116.597 102.794H120.184Z" fill="#64635E"/>
<path d="M126.035 104.133C125.786 104.133 125.648 104.042 125.648 103.838V95.9396C125.648 95.7353 125.786 95.6445 126.035 95.6445H132.189C133.982 95.6445 134.893 96.3708 134.893 97.8234V101.954C134.893 103.407 133.982 104.133 132.189 104.133H126.035ZM127.553 102.726H131.968C132.658 102.726 133.016 102.454 133.016 101.863V97.8461C133.016 97.2787 132.658 96.9836 131.968 96.9836H127.553V102.726Z" fill="#64635E"/>
</g>
<defs>
<clipPath id="clip0_168_1725">
<rect width="143" height="118" fill="white" transform="translate(0.226562)"/>
</clipPath>
</defs>
</svg>
