<svg width="701" height="291" viewBox="0 0 701 291" fill="none" xmlns="http://www.w3.org/2000/svg">
<path d="M352.828 279.238C333.451 278.98 316.27 274.584 301.285 266.052C286.3 257.52 273.77 246.273 263.694 232.311C253.618 218.349 245.996 203.353 240.829 187.322C235.92 171.033 233.465 155.132 233.465 139.619C233.465 123.072 236.178 106.524 241.604 89.9768C247.029 73.4293 254.909 58.4332 265.244 44.9884C275.837 31.285 288.496 20.4258 303.223 12.4106C317.949 4.13687 334.485 0 352.828 0C372.722 0 390.032 4.39541 404.759 13.1862C419.744 21.9771 432.274 33.3535 442.35 47.3154C452.427 61.2773 459.919 76.4027 464.828 92.6916C469.995 108.981 472.579 124.623 472.579 139.619C472.579 156.425 469.866 173.102 464.44 189.649C459.015 205.938 451.006 220.805 440.413 234.25C430.078 247.695 417.548 258.554 402.821 266.828C388.095 274.843 371.43 278.98 352.828 279.238ZM287.334 139.619C287.592 150.478 289.013 161.338 291.597 172.197C294.439 182.798 298.443 192.623 303.61 201.672C309.036 210.722 315.883 218.09 324.15 223.779C332.418 229.208 341.977 231.923 352.828 231.923C364.455 231.923 374.401 228.95 382.669 223.003C390.937 217.056 397.654 209.429 402.821 200.121C408.247 190.813 412.251 180.859 414.835 170.258C417.419 159.657 418.71 149.444 418.71 139.619C418.71 128.76 417.289 118.03 414.447 107.429C411.864 96.5699 407.73 86.6156 402.046 77.5662C396.62 68.5168 389.774 61.2773 381.506 55.8477C373.497 50.1595 363.938 47.3154 352.828 47.3154C341.46 47.3154 331.643 50.2888 323.375 56.2355C315.108 62.1822 308.261 69.8096 302.835 79.1175C297.668 88.4255 293.793 98.3798 291.209 108.981C288.625 119.581 287.334 129.794 287.334 139.619Z" fill="#303030"/>
<path d="M115.875 275.36V212.919H0V166.38L132.152 0H167.806V165.992H201.909V212.919H167.806V275.36H115.875ZM52.3182 165.992H121.688V78.3419L52.3182 165.992Z" fill="#303030"/>
<path d="M410.686 140.307C410.686 140.307 413.403 130.844 405.175 109.645C396.87 88.4456 400.13 76.709 402.924 68.2C402.924 68.2 385.072 81.9171 396.249 100.696C407.426 119.548 408.125 128.644 407.271 136.566C406.495 144.488 410.686 140.307 410.686 140.307Z" fill="#B61E23"/>
<path d="M397.959 98.6418C405.1 113.386 412.396 129.01 407.273 139.426C407.195 138.693 407.195 137.813 407.35 136.566C408.127 128.643 407.428 119.548 396.329 100.696C385.151 81.8438 403.004 68.2 403.004 68.2C403.004 68.2 390.43 83.0174 397.959 98.6418Z" fill="#E50000"/>
<path d="M410.688 140.307C410.688 140.307 407.35 118.594 382.823 98.0548C358.373 77.5158 356.432 52.7222 356.432 52.7222C356.432 52.7222 342.694 74.2882 361.943 87.932C381.193 101.576 401.529 118.3 405.798 136.566C410.067 154.904 410.688 140.307 410.688 140.307Z" fill="#B61E23"/>
<path d="M362.176 83.4574C373.12 94.2404 402.848 111.992 405.487 135.392C400.675 117.567 380.727 101.356 361.943 88.0053C342.694 74.3615 356.432 52.7955 356.432 52.7955C356.432 52.7955 350.533 72.0142 362.176 83.4574Z" fill="#E50000"/>
<path d="M309.163 88.0053C309.163 88.0053 396.251 130.477 406.109 161.212C406.109 161.286 446.626 119.621 309.163 88.0053Z" fill="#E50000"/>
<path d="M406.109 161.286C406.109 161.286 411.93 136.712 382.901 119.254C353.871 101.796 309.163 88.0053 309.163 88.0053C446.626 119.621 406.109 161.286 406.109 161.286Z" fill="#B61E23"/>
<path d="M279.046 37.0978C279.046 37.0978 247.456 54.2626 260.496 76.4888C273.535 98.715 351.465 120.208 351.465 120.208C351.465 120.208 261.505 82.9439 279.046 37.0978Z" fill="#E50000"/>
<path d="M260.496 76.4888C247.456 54.2626 279.046 37.0978 279.046 37.0978C279.046 37.0978 258.012 60.0575 272.604 79.2762C286.964 98.2015 351.465 120.134 351.465 120.134C351.465 120.134 273.535 98.715 260.496 76.4888Z" fill="#B61E23"/>
<path d="M257.622 74.5819C257.622 74.5819 236.975 100.036 256.612 114.78C276.25 129.45 351.463 121.455 351.463 121.455C351.463 121.455 259.95 119.914 257.622 74.5819Z" fill="#E50000"/>
<path d="M256.612 114.78C236.975 100.109 257.622 74.5819 257.622 74.5819C257.622 74.5819 248.23 101.429 268.1 113.093C287.66 124.462 351.463 121.455 351.463 121.455C351.463 121.455 276.328 129.45 256.612 114.78Z" fill="#B61E23"/>
<path d="M254.21 117.86C254.21 117.86 247.379 146.468 269.656 151.53C291.932 156.591 351 122.775 351 122.775C351 122.775 274.546 154.611 254.21 117.86Z" fill="#E50000"/>
<path d="M269.656 151.53C247.379 146.468 254.21 117.86 254.21 117.86C254.21 117.86 257.314 143.534 278.504 145.955C299.306 148.376 351 122.775 351 122.775C351 122.775 291.932 156.591 269.656 151.53Z" fill="#B61E23"/>
<path d="M266.318 153.217C266.318 153.217 271.596 180.138 292.631 176.837C313.743 173.463 351.388 123.949 351.388 123.949C351.388 123.949 298.064 177.791 266.318 153.217Z" fill="#E50000"/>
<path d="M292.707 176.764C271.595 180.138 266.395 153.144 266.395 153.144C266.395 153.144 279.047 174.123 298.141 168.915C317.002 163.78 351.465 123.876 351.465 123.876C351.465 123.876 313.82 173.463 292.707 176.764Z" fill="#B61E23"/>
<path d="M486.989 37.0978C486.989 37.0978 518.579 54.2626 505.539 76.4888C492.5 98.715 414.57 120.208 414.57 120.208C414.57 120.208 504.53 82.9439 486.989 37.0978Z" fill="#E50000"/>
<path d="M505.539 76.4888C518.579 54.2626 486.989 37.0978 486.989 37.0978C486.989 37.0978 508.023 60.0575 493.431 79.2762C479.071 98.2015 414.57 120.134 414.57 120.134C414.57 120.134 492.5 98.715 505.539 76.4888Z" fill="#B61E23"/>
<path d="M508.411 74.5819C508.411 74.5819 529.058 100.036 509.42 114.78C489.783 129.45 414.57 121.455 414.57 121.455C414.57 121.455 506.083 119.914 508.411 74.5819Z" fill="#E50000"/>
<path d="M509.42 114.78C529.058 100.109 508.411 74.5819 508.411 74.5819C508.411 74.5819 517.803 101.429 497.933 113.093C478.373 124.462 414.57 121.455 414.57 121.455C414.57 121.455 489.783 129.45 509.42 114.78Z" fill="#B61E23"/>
<path d="M511.825 117.86C511.825 117.86 518.655 146.468 496.379 151.53C474.102 156.591 415.034 122.775 415.034 122.775C415.034 122.775 491.566 154.611 511.825 117.86Z" fill="#E50000"/>
<path d="M496.379 151.53C518.655 146.468 511.825 117.86 511.825 117.86C511.825 117.86 508.72 143.534 487.53 145.955C466.728 148.376 415.034 122.775 415.034 122.775C415.034 122.775 474.18 156.591 496.379 151.53Z" fill="#B61E23"/>
<path d="M499.717 153.217C499.717 153.217 494.439 180.138 473.404 176.837C452.292 173.463 414.646 123.949 414.646 123.949C414.646 123.949 467.971 177.791 499.717 153.217Z" fill="#E50000"/>
<path d="M473.328 176.764C494.44 180.138 499.641 153.144 499.641 153.144C499.641 153.144 486.989 174.123 467.894 168.915C449.033 163.78 414.57 123.876 414.57 123.876C414.57 123.876 452.215 173.463 473.328 176.764Z" fill="#B61E23"/>
<path d="M370.635 157.985C370.635 157.985 315.525 242.122 285.642 245.203C285.565 245.203 316.069 299.631 370.635 157.985Z" fill="#E50000"/>
<path d="M285.566 245.203C285.566 245.203 306.911 257.673 328.256 230.385C349.602 203.098 370.559 157.985 370.559 157.985C316.07 299.631 285.566 245.203 285.566 245.203Z" fill="#B61E23"/>
<path d="M375.371 171.849C375.371 171.849 368.153 235.961 353.793 249.238C353.716 249.164 382.59 264.862 375.371 171.849Z" fill="#B61E23"/>
<path d="M341.298 261.121C341.298 261.121 357.52 258.774 364.894 233.247C372.19 207.646 375.217 171.849 375.217 171.849C372.733 279.239 341.298 261.121 341.298 261.121Z" fill="#E50000"/>
<path d="M387.247 251.951C387.247 251.951 418.372 250.264 417.751 221.363C417.13 192.388 366.911 132.018 366.911 132.018C366.911 132.018 419.692 214.321 387.247 251.951Z" fill="#E50000"/>
<path d="M417.829 221.363C418.45 250.338 387.325 251.951 387.325 251.951C387.325 251.951 412.862 239.188 409.834 212.487C406.885 186.226 367.066 132.018 367.066 132.018C367.066 132.018 417.208 192.388 417.829 221.363Z" fill="#B61E23"/>
<path fill-rule="evenodd" clip-rule="evenodd" d="M343.858 27.049C334.233 53.3096 336.794 75.3892 351.62 93.2141C324.686 74.5089 322.047 52.4294 343.858 27.049Z" fill="#E50000"/>
<path fill-rule="evenodd" clip-rule="evenodd" d="M375.838 12.8183C370.638 37.9786 372.19 62.9923 380.418 87.8592C362.488 61.9653 361.013 36.9517 375.838 12.8183Z" fill="#B61E23"/>
<path d="M614.966 275.36V212.919H499.091V166.38L631.242 0H666.896V165.992H701V212.919H666.896V275.36H614.966ZM551.409 165.992H620.779V78.3419L551.409 165.992Z" fill="#303030"/>
<g clip-path="url(#clip0_1132_3885)">
<path d="M352.828 279.238C333.451 278.98 316.27 274.584 301.285 266.052C286.3 257.52 273.77 246.273 263.694 232.311C253.618 218.349 245.996 203.353 240.829 187.322C235.92 171.033 233.465 155.132 233.465 139.619C233.465 123.072 236.178 106.524 241.604 89.9768C247.029 73.4293 254.909 58.4332 265.244 44.9884C275.837 31.285 288.496 20.4258 303.223 12.4106C317.949 4.13687 334.485 0 352.828 0C372.722 0 390.032 4.39541 404.759 13.1862C419.744 21.9771 432.274 33.3535 442.35 47.3154C452.427 61.2773 459.919 76.4027 464.828 92.6916C469.995 108.981 472.579 124.623 472.579 139.619C472.579 156.425 469.866 173.102 464.44 189.649C459.015 205.938 451.006 220.805 440.413 234.25C430.078 247.695 417.548 258.554 402.821 266.828C388.095 274.843 371.43 278.98 352.828 279.238ZM287.334 139.619C287.592 150.478 289.013 161.338 291.597 172.197C294.439 182.798 298.443 192.623 303.61 201.672C309.036 210.722 315.883 218.09 324.15 223.779C332.418 229.208 341.977 231.923 352.828 231.923C364.455 231.923 374.401 228.95 382.669 223.003C390.937 217.056 397.654 209.429 402.821 200.121C408.247 190.813 412.251 180.859 414.835 170.258C417.419 159.657 418.71 149.444 418.71 139.619C418.71 128.76 417.289 118.03 414.447 107.429C411.864 96.5699 407.73 86.6156 402.046 77.5662C396.621 68.5168 389.774 61.2773 381.506 55.8477C373.497 50.1595 363.938 47.3154 352.828 47.3154C341.46 47.3154 331.643 50.2888 323.375 56.2355C315.108 62.1822 308.261 69.8096 302.835 79.1175C297.668 88.4255 293.793 98.3798 291.209 108.981C288.625 119.581 287.334 129.794 287.334 139.619Z" fill="#303030"/>
</g>
<g clip-path="url(#clip1_1132_3885)">
<path d="M352.828 279.238C333.451 278.98 316.27 274.584 301.285 266.052C286.3 257.52 273.77 246.273 263.694 232.311C253.618 218.349 245.996 203.353 240.829 187.322C235.92 171.033 233.465 155.132 233.465 139.619C233.465 123.072 236.178 106.524 241.604 89.9768C247.029 73.4293 254.909 58.4332 265.244 44.9884C275.837 31.285 288.496 20.4258 303.223 12.4106C317.949 4.13687 334.485 0 352.828 0C372.722 0 390.032 4.39541 404.759 13.1862C419.744 21.9771 432.274 33.3535 442.35 47.3154C452.427 61.2773 459.919 76.4027 464.828 92.6916C469.995 108.981 472.579 124.623 472.579 139.619C472.579 156.425 469.866 173.102 464.44 189.649C459.015 205.938 451.006 220.805 440.413 234.25C430.078 247.695 417.548 258.554 402.821 266.828C388.095 274.843 371.43 278.98 352.828 279.238ZM287.334 139.619C287.592 150.478 289.013 161.338 291.597 172.197C294.439 182.798 298.443 192.623 303.61 201.672C309.036 210.722 315.883 218.09 324.15 223.779C332.418 229.208 341.977 231.923 352.828 231.923C364.455 231.923 374.401 228.95 382.669 223.003C390.937 217.056 397.654 209.429 402.821 200.121C408.247 190.813 412.251 180.859 414.835 170.258C417.419 159.657 418.71 149.444 418.71 139.619C418.71 128.76 417.289 118.03 414.447 107.429C411.864 96.5699 407.73 86.6156 402.046 77.5662C396.621 68.5168 389.774 61.2773 381.506 55.8477C373.497 50.1595 363.938 47.3154 352.828 47.3154C341.46 47.3154 331.643 50.2888 323.375 56.2355C315.108 62.1822 308.261 69.8096 302.835 79.1175C297.668 88.4255 293.793 98.3798 291.209 108.981C288.625 119.581 287.334 129.794 287.334 139.619Z" fill="#303030"/>
</g>
<defs>
<clipPath id="clip0_1132_3885">
<rect width="41.888" height="61.541" fill="white" transform="translate(336.614 229.459)"/>
</clipPath>
<clipPath id="clip1_1132_3885">
<rect width="65.06" height="146.271" fill="white" transform="translate(235.904 36.8091)"/>
</clipPath>
</defs>
</svg>
