<svg width="30" height="30" viewBox="0 0 30 30" fill="none" xmlns="http://www.w3.org/2000/svg">
<path d="M24.4228 19.1444C23.2485 20.0974 21.9557 20.8872 20.5536 21.4436L23.1027 25.8587L25.6317 26.9387C26.0915 27.1351 26.6109 26.8351 26.6709 26.3387L27 23.6083L24.4228 19.1444ZM26.4145 14.712C26.6423 14.3525 26.5031 13.8687 26.1309 13.6625L24.8151 12.9327C24.4645 12.7381 24.0365 12.8642 23.8185 13.2008C21.8915 16.1787 18.5745 17.9998 15.0002 17.9998C13.8785 17.9998 12.7863 17.8006 11.7466 17.4593L14.9041 11.99C14.937 11.991 14.967 11.9999 14.9998 11.9999C15.0326 11.9999 15.063 11.991 15.0954 11.99L17.4903 16.1384C18.9542 15.7184 20.2822 14.9314 21.3627 13.8453L18.935 9.64021C19.2842 9.00131 19.5003 8.27945 19.5003 7.49993C19.5003 5.01466 17.4856 3 15.0002 3C12.5149 3 10.5001 5.01466 10.5001 7.49993C10.5001 8.27945 10.7162 9.00131 11.065 9.64021L7.86338 15.1859C7.27508 14.6417 6.74023 14.0333 6.2846 13.3578C6.06006 13.025 5.62974 12.9069 5.28239 13.108L3.98158 13.8612C3.61361 14.074 3.48329 14.5597 3.7172 14.9145C4.44706 16.0226 5.34333 16.9868 6.34132 17.8216L3 23.6087L3.32907 26.3392C3.38907 26.8356 3.90846 27.1356 4.36831 26.9392L6.89726 25.8592L10.2161 20.111C11.725 20.6847 13.3418 20.9997 15.0002 20.9997C19.6433 20.9997 23.9479 18.6087 26.4145 14.712ZM15.0002 5.99995C15.8285 5.99995 16.5003 6.67166 16.5003 7.49993C16.5003 8.3282 15.8285 8.99991 15.0002 8.99991C14.1719 8.99991 13.5002 8.3282 13.5002 7.49993C13.5002 6.67166 14.1719 5.99995 15.0002 5.99995Z" fill="#CB2D2D"/>
</svg>
