<svg width="30" height="30" viewBox="0 0 30 30" fill="none" xmlns="http://www.w3.org/2000/svg">
<path d="M14.977 5.44093C14.6854 5.50538 14.4287 5.57569 14.3937 5.61085C14.3645 5.64015 14.2945 5.66944 14.2362 5.66944C14.1312 5.66944 13.682 5.89796 13.3379 6.12647C13.0637 6.31397 12.8887 6.44288 9.89619 8.7339C9.61036 8.95069 9.29536 9.19093 9.19619 9.26124C8.32119 9.91163 8.10536 10.228 8.22786 10.6909C8.30953 10.9956 8.46119 11.1421 8.79953 11.2651C8.95119 11.3179 9.13786 11.3941 9.20203 11.4234C9.27203 11.4585 9.56369 11.4878 9.84369 11.4878C10.4329 11.4937 10.882 11.3589 11.5587 10.9722C14.4637 9.31398 15.2745 8.87452 15.4904 8.85108C15.8112 8.81593 16.0387 8.95655 16.3829 9.39601C16.5345 9.59523 16.9137 10.0523 17.217 10.4214C17.5262 10.7905 18.1329 11.523 18.5645 12.0562C18.9962 12.5894 19.6262 13.3511 19.9529 13.7554C20.2854 14.1597 20.7695 14.7515 21.0262 15.0737C21.2887 15.396 21.5162 15.6714 21.5337 15.689C21.5687 15.7241 22.6012 16.9722 22.817 17.2476C23.4704 18.0737 24.7595 19.6089 24.8237 19.6323C24.8937 19.6616 25.1212 19.5444 25.2087 19.439C25.2262 19.4214 25.3312 19.3394 25.442 19.2632C25.6345 19.1226 25.6987 19.1167 26.7254 19.0874C27.9095 19.0523 27.997 19.0288 28.1545 18.6948C28.2304 18.5308 28.242 17.9097 28.2304 13.8198L28.2129 9.13819L28.0787 8.99171C27.857 8.75148 27.577 8.69874 26.7487 8.72804C26.1362 8.75148 25.897 8.73976 25.4712 8.64015C25.1854 8.57569 24.9229 8.50538 24.8879 8.48194C24.8587 8.45851 24.6895 8.39405 24.5145 8.33546C24.3454 8.28273 24.1354 8.19483 24.0479 8.15382C23.9662 8.10694 23.8554 8.07179 23.8087 8.07179C23.762 8.07179 23.6512 8.03663 23.5637 7.98976C23.482 7.94288 23.3129 7.87843 23.1845 7.83741C23.062 7.7964 22.9395 7.74366 22.9045 7.72023C22.8754 7.69679 22.7062 7.63233 22.5312 7.57374C22.362 7.52101 22.152 7.43312 22.0645 7.3921C21.9829 7.34522 21.8779 7.31007 21.837 7.31007C21.7962 7.31007 21.6562 7.25733 21.5162 7.19874C21.382 7.13429 21.207 7.06397 21.1254 7.0464C21.0437 7.02296 20.9037 6.97022 20.8045 6.92335C20.7112 6.88233 20.3787 6.75343 20.0754 6.63624C19.772 6.51905 19.4687 6.40187 19.4045 6.37257C19.3404 6.34327 19.0662 6.2378 18.792 6.13819C18.0745 5.87452 17.5495 5.6753 17.4445 5.61085C17.2637 5.51124 16.3712 5.35304 15.9337 5.34718C15.6887 5.34132 15.2629 5.38233 14.977 5.44093Z" fill="#CB2D2D"/>
<path d="M2.24314 8.79248C2.13814 8.8335 1.99231 8.92139 1.92231 8.99756L1.78814 9.13232L1.77064 13.8608C1.75897 18.4663 1.75897 18.5952 1.86981 18.7769C2.02147 19.0229 2.26647 19.0874 3.07731 19.0874H3.73064L4.29064 18.4194C4.98481 17.5933 5.18314 17.4175 5.66731 17.189C6.00564 17.0308 6.10481 17.0132 6.62981 17.0073C6.95064 17.0073 7.26564 17.0308 7.32981 17.0601C7.39397 17.0894 7.45814 17.1187 7.47564 17.1187C7.49314 17.1245 7.65647 17.2007 7.83731 17.2886C8.33314 17.5347 8.67731 17.9448 9.05064 18.7358C9.07397 18.7827 9.13814 18.8354 9.19647 18.8413C9.41231 18.8882 9.98397 19.2749 10.2231 19.5386C10.3573 19.6968 10.544 19.9839 10.6373 20.1831C10.789 20.5054 10.8356 20.5581 11.0398 20.6167C11.1623 20.6577 11.2673 20.7104 11.2673 20.7339C11.2673 20.7573 11.3198 20.7983 11.3898 20.8159C11.559 20.8687 11.9381 21.2261 12.084 21.4604C12.1715 21.6011 12.259 21.6655 12.4165 21.6948C12.7665 21.7593 13.2623 22.0464 13.5715 22.3628C14.359 23.1597 14.5281 24.355 14.0031 25.3687L13.834 25.7026L14.0206 25.8081C14.1256 25.8608 14.254 25.9019 14.3123 25.896C14.3648 25.8843 14.4231 25.9077 14.4465 25.9429C14.4931 26.019 14.7498 26.019 14.7965 25.9429C14.814 25.9077 14.884 25.8843 14.9481 25.8843C15.1056 25.8843 15.4731 25.6909 15.619 25.521C15.8465 25.2749 16.0098 24.8765 16.0156 24.5542C16.0156 24.2144 16.039 24.1909 16.1906 24.355C16.5465 24.7476 17.369 24.8706 17.859 24.5952C18.3315 24.3315 18.6698 23.7163 18.5998 23.2651C18.559 23.0249 18.594 23.0249 18.8623 23.2476C19.1481 23.4878 19.3406 23.5522 19.7548 23.5522C20.1515 23.5522 20.4898 23.4351 20.7406 23.2007C20.9681 22.9839 21.184 22.48 21.184 22.1636C21.184 21.8706 21.2306 21.8413 21.394 22.0229C21.5806 22.2339 22.0006 22.3979 22.3506 22.3979C23.3656 22.3979 24.0656 21.3081 23.6223 20.4292C23.5173 20.2241 22.7998 19.2866 22.6423 19.146C22.6248 19.1284 22.3856 18.8413 22.1115 18.5015C21.8431 18.1616 21.6098 17.8745 21.5865 17.8569C21.569 17.8394 20.7173 16.7964 19.6965 15.5425C18.6698 14.2827 17.4798 12.8237 17.0423 12.2964C16.6106 11.769 16.0915 11.1304 15.8931 10.8784C15.6948 10.6323 15.5081 10.4097 15.4673 10.3862C15.4031 10.3452 15.059 10.4565 15.0006 10.5386C14.9831 10.562 14.7615 10.6909 14.5048 10.8257C14.2481 10.9604 13.9331 11.1304 13.8048 11.2065C13.6765 11.2769 13.4548 11.3999 13.309 11.4819C13.1631 11.5581 12.7198 11.8101 12.3173 12.0386C11.4306 12.5366 10.8765 12.7358 10.2056 12.7886C9.68647 12.8296 8.72981 12.7358 8.66564 12.6362C8.64814 12.6069 8.58981 12.5835 8.53147 12.5835C8.47314 12.5835 8.26897 12.5015 8.07064 12.4019C7.16647 11.9507 6.72314 10.9312 6.97397 9.87061C7.02647 9.64795 7.10814 9.41357 7.15481 9.34326C7.30064 9.13232 7.26564 8.90967 7.06731 8.8042C6.92147 8.72803 6.55981 8.71631 4.66397 8.72217C3.11231 8.72217 2.37147 8.74561 2.24314 8.79248Z" fill="#CB2D2D"/>
<path d="M6.32041 18.3785C5.94124 18.5074 5.90624 18.5425 5.21791 19.3921C4.56457 20.2066 4.45374 20.4703 4.58207 20.9566C4.76291 21.6714 5.56207 22.1167 6.23291 21.8824C6.36707 21.8355 6.48957 21.812 6.50707 21.8238C6.52457 21.8413 6.52457 21.9292 6.50124 22.0171C6.46041 22.2222 6.57124 22.5738 6.75791 22.8199C6.89207 23.0074 7.30041 23.312 7.47541 23.3589C7.74374 23.4292 7.90707 23.4292 8.11707 23.3413C8.24541 23.2886 8.37374 23.2476 8.40291 23.2476C8.43207 23.2476 8.46707 23.4058 8.47874 23.5992C8.49624 23.8804 8.53707 23.9917 8.68291 24.1675C9.07374 24.6538 9.71541 24.8531 10.1529 24.6245L10.3337 24.5367L10.4212 24.7476C10.4679 24.8648 10.5087 24.982 10.5087 25.0113C10.5087 25.0992 10.9462 25.4917 11.1504 25.5796C11.4246 25.6968 11.5937 25.7144 11.9029 25.6441C12.2471 25.5679 12.4629 25.398 12.6962 25.0347C12.9704 24.607 13.0754 24.1675 12.9821 23.8453C12.8129 23.2828 12.3696 22.937 11.8154 22.9488C11.6346 22.9488 11.4537 22.9781 11.4187 23.0132C11.3312 23.0835 11.2671 23.0308 11.2671 22.9019C11.2671 22.187 10.4912 21.5953 9.82041 21.7828C9.55207 21.8531 9.44124 21.7769 9.52291 21.5718C9.68624 21.1265 9.48207 20.5347 9.05624 20.2417C8.84041 20.0953 8.72957 20.0601 8.46707 20.0601C8.29207 20.0542 8.04124 20.0777 7.91874 20.107L7.69124 20.1597L7.74374 19.9898C7.77291 19.896 7.79624 19.6441 7.79624 19.4331C7.79624 19.105 7.77291 19.0113 7.63291 18.8062C7.34124 18.3902 6.81041 18.2144 6.32041 18.3785Z" fill="#CB2D2D"/>
</svg>
