<svg version="1.1" id="Слой_1" xmlns="http://www.w3.org/2000/svg" x="0" y="0" viewBox="0 0 209 51.3" xml:space="preserve"><g id="Слой_x0020_1" fill="#292929"><path d="M89.6 16.5h2.2l4.8 13.7 5.7-14.6 5.4 14.6 5.3-13.7h2.2l-7.6 19.2-5.4-14.6-5.7 14.6-6.9-19.2zm37.7 0v1.9h-7.4v5.4h7.2v1.9h-7.2v7.1h7.4v1.9h-9.4V16.5h9.4zm3.8 0h3.3c1.8 0 3.2.4 4.2 1.1 1.1.8 1.6 2.1 1.6 3.8 0 1.6-.6 2.8-1.8 3.6 1.2.3 2 .9 2.6 1.8.6.9.9 1.8.9 2.8 0 .8-.2 1.6-.5 2.3-.4.7-.8 1.2-1.3 1.7-1 .8-2.5 1.2-4.4 1.2h-4.5V16.5h-.1zm2 1.9v6.1h2.3c.3 0 .6-.1.9-.2.4-.1.7-.3.9-.5.3-.2.5-.5.7-.9.2-.4.3-.9.3-1.4 0-.6-.1-1.1-.3-1.5-.2-.4-.5-.7-.7-.9-.3-.2-.6-.4-1-.5-.4-.1-.7-.2-.9-.2h-2.2zm0 7.9v6.5h2.3c1.5 0 2.5-.3 3.2-.8.8-.6 1.2-1.4 1.2-2.5 0-1.2-.5-2.1-1.6-2.7-.7-.4-1.7-.5-3.1-.5h-2zm22.2-7.2l-1.6 1.1c-.3-.6-.6-1-1.1-1.4-.5-.4-1.2-.6-2-.6-.9 0-1.6.3-2.2.8-.6.5-.8 1.2-.8 2 0 .6.2 1.1.7 1.6.4.4 1 .7 1.9 1.1l1.7.8c1.3.6 2.2 1.1 2.8 1.7.9.9 1.3 2 1.3 3.3 0 1.7-.5 3-1.6 4s-2.5 1.6-4.1 1.6c-1.6 0-3-.5-4-1.5-.8-.8-1.4-1.9-1.7-3.2l2-.5c.1.9.5 1.7 1.1 2.3.7.7 1.5 1 2.6 1 1.2 0 2.1-.4 2.7-1.1.6-.7 1-1.6 1-2.6 0-.9-.3-1.6-.9-2.1-.3-.3-1.1-.7-2.2-1.3l-1.6-.8c-1.1-.5-1.9-1-2.4-1.5-.8-.8-1.3-1.8-1.3-3 0-1.4.5-2.5 1.4-3.4 1-.9 2.2-1.3 3.7-1.3 1.1 0 2.1.3 2.9.8.7.6 1.2 1.3 1.7 2.2zm6.4-2.6v7.4h9.3v-7.4h2v18.2h-2v-8.9h-9.3v8.9h-2V16.5h2zM193 32.4c-1.8 1.8-4.1 2.7-6.7 2.7-2.7 0-4.9-.9-6.7-2.7-1.8-1.8-2.7-4-2.7-6.7s.9-4.9 2.8-6.7c1.8-1.8 4.1-2.7 6.7-2.7 2.6 0 4.9.9 6.7 2.7 1.8 1.8 2.8 4 2.8 6.7-.2 2.6-1.1 4.9-2.9 6.7zm-1.5-12.1c-1.4-1.5-3.2-2.2-5.2-2.2-2.1 0-3.8.7-5.2 2.2-1.4 1.5-2.2 3.2-2.2 5.3s.7 3.9 2.2 5.3c1.4 1.5 3.2 2.2 5.2 2.2 2.1 0 3.8-.7 5.2-2.2 1.4-1.5 2.2-3.2 2.2-5.3s-.8-3.8-2.2-5.3zm7.9-3.8h3.3c2.1 0 3.6.4 4.6 1.3 1.1.9 1.7 2.2 1.7 3.9 0 1.4-.5 2.6-1.4 3.6-1 1-2.4 1.5-4.3 1.5h-1.8v7.9h-2V16.5h-.1zm2.1 1.9v6.5h1.7c1.2 0 2.1-.3 2.8-.9.7-.6 1-1.4 1-2.4 0-2.1-1.3-3.2-4-3.2h-1.5z" fill-opacity=".22"/><path d="M88 16.5h2.2L95 30.2l5.7-14.6 5.4 14.6 5.3-13.7h2.2L106 35.7l-5.4-14.6L95 35.7l-7-19.2zm37.8 0v1.9h-7.4v5.4h7.2v1.9h-7.2v7.1h7.4v1.9h-9.4V16.5h9.4zm3.7 0h3.3c1.8 0 3.2.4 4.2 1.1 1.1.8 1.6 2.1 1.6 3.8 0 1.6-.6 2.8-1.8 3.6 1.2.3 2 .9 2.6 1.8.6.9.9 1.8.9 2.8 0 .8-.2 1.6-.5 2.3-.4.7-.8 1.2-1.3 1.7-1 .8-2.5 1.2-4.4 1.2h-4.5V16.5h-.1zm2 2v6.1h2.3c.3 0 .6-.1.9-.2.4-.1.7-.3.9-.5.3-.2.5-.5.7-.9.2-.4.3-.9.3-1.4 0-.6-.1-1.1-.3-1.5-.2-.4-.5-.7-.7-.9-.3-.2-.6-.4-1-.5-.4-.1-.7-.2-.9-.2h-2.2zm0 7.8v6.5h2.3c1.5 0 2.5-.3 3.2-.8.8-.6 1.2-1.4 1.2-2.5 0-1.2-.5-2.1-1.6-2.7-.7-.4-1.7-.5-3.1-.5h-2zm22.2-7.2l-1.6 1.1c-.3-.6-.6-1-1.1-1.4-.5-.4-1.2-.6-2-.6-.9 0-1.6.3-2.2.8-.6.5-.8 1.2-.8 2 0 .6.2 1.1.7 1.6.4.4 1 .7 1.9 1.1l1.7.8c1.3.6 2.2 1.1 2.8 1.7.9.9 1.3 2 1.3 3.3 0 1.7-.5 3-1.6 4s-2.5 1.6-4.1 1.6c-1.6 0-3-.5-4-1.5-.8-.8-1.4-1.9-1.7-3.2l2-.5c.1.9.5 1.7 1.1 2.3.7.7 1.5 1 2.6 1 1.2 0 2.1-.4 2.7-1.1.6-.7 1-1.6 1-2.6 0-.9-.3-1.6-.9-2.1-.3-.3-1.1-.7-2.2-1.3l-1.6-.8c-1.1-.5-1.9-1-2.4-1.5-.8-.8-1.3-1.8-1.3-3 0-1.4.5-2.5 1.4-3.4 1-.9 2.2-1.3 3.7-1.3 1.1 0 2.1.3 2.9.8.7.7 1.3 1.3 1.7 2.2zm6.4-2.6v7.4h9.3v-7.4h2v18.2h-2v-8.9h-9.3v8.9h-2V16.5h2zm31.3 15.9c-1.8 1.8-4.1 2.7-6.7 2.7-2.7 0-4.9-.9-6.7-2.7-1.8-1.8-2.7-4-2.7-6.7s.9-4.9 2.8-6.7c1.8-1.8 4.1-2.7 6.7-2.7 2.6 0 4.9.9 6.7 2.7 1.8 1.8 2.8 4 2.8 6.7-.1 2.6-1.1 4.9-2.9 6.7zm-1.5-12.1c-1.4-1.5-3.2-2.2-5.2-2.2s-3.8.7-5.2 2.2c-1.4 1.5-2.2 3.2-2.2 5.3s.7 3.9 2.2 5.3c1.4 1.5 3.2 2.2 5.2 2.2s3.8-.7 5.2-2.2c1.4-1.5 2.2-3.2 2.2-5.3s-.7-3.8-2.2-5.3zm8-3.8h3.3c2.1 0 3.6.4 4.6 1.3 1.1.9 1.7 2.2 1.7 3.9 0 1.4-.5 2.6-1.4 3.6-1 1-2.4 1.5-4.3 1.5H200v7.9h-2l-.1-18.2zm2 2V25h1.7c1.2 0 2.1-.3 2.8-.9.7-.6 1-1.4 1-2.4 0-2.1-1.3-3.2-4-3.2h-1.5z"/></g><linearGradient id="SVGID_1_" gradientUnits="userSpaceOnUse" x1="-9696.288" y1="-13694.404" x2="-9696.288" y2="-11884.654" gradientTransform="translate(296.648 388.288) scale(.02835)"><stop offset="0" stop-color="#5ab31b"/><stop offset="1" stop-color="#255900"/></linearGradient><path fill="url(#SVGID_1_)" d="M29.4.1L21 20l-6.7 16.1-.1-.2-4.3 10.3 1.5 5.1h6.5L28 25.1l5.7-14.8z"/><linearGradient id="SVGID_2_" gradientUnits="userSpaceOnUse" x1="-9118.804" y1="-13696.102" x2="-9118.804" y2="-11886.352" gradientTransform="translate(296.648 388.288) scale(.02835)"><stop offset="0" stop-color="#5ab31b"/><stop offset="1" stop-color="#255900"/></linearGradient><path fill="url(#SVGID_2_)" d="M38 51.3h5.8l1-2-9.2-23.2-4.1 10.7z"/><linearGradient id="SVGID_3_" gradientUnits="userSpaceOnUse" x1="-8558.321" y1="-13696.102" x2="-8558.321" y2="-11886.352" gradientTransform="translate(296.648 388.288) scale(.02835)"><stop offset="0" stop-color="#5ab31b"/><stop offset="1" stop-color="#255900"/></linearGradient><path fill="url(#SVGID_3_)" d="M54.7 0l-8.8 23 3.8 9.6L62.2 0z"/><linearGradient id="SVGID_4_" gradientUnits="userSpaceOnUse" x1="-8891.698" y1="-13697.932" x2="-8891.698" y2="-11888.182" gradientTransform="translate(296.648 388.288) scale(.02835)"><stop offset="0" stop-color="#9de346"/><stop offset=".702" stop-color="#73ac2c"/><stop offset="1" stop-color="#487511"/></linearGradient><path fill="url(#SVGID_4_)" d="M62.2.1L49.7 32.6 37.2 1.1l-3.5 9.2L28 25.1l-8.9 23.2 1.1 2.9H26l5.5-14.4v-.1l4.1-10.6 10 25.2h5L70.1.1z"/><linearGradient id="SVGID_5_" gradientUnits="userSpaceOnUse" x1="-10094.818" y1="-13697.933" x2="-10094.818" y2="-11888.184" gradientTransform="translate(296.648 388.288) scale(.02835)"><stop offset="0" stop-color="#9de346"/><stop offset=".702" stop-color="#73ac2c"/><stop offset="1" stop-color="#487511"/></linearGradient><path fill="url(#SVGID_5_)" d="M13.1 0H0l14.2 35.9L21 20z"/><linearGradient id="SVGID_6_" gradientUnits="userSpaceOnUse" x1="-9281.517" y1="-13696.102" x2="-9281.517" y2="-11886.352" gradientTransform="translate(296.648 388.288) scale(.02835)"><stop offset="0" stop-color="#5ab31b"/><stop offset="1" stop-color="#255900"/></linearGradient><path fill="url(#SVGID_6_)" d="M31.5 36.8l4.1-10.7-4.1 10.6z"/><linearGradient id="SVGID_7_" gradientUnits="userSpaceOnUse" x1="-9281.517" y1="-13697.932" x2="-9281.517" y2="-11888.182" gradientTransform="translate(296.648 388.288) scale(.02835)"><stop offset="0" stop-color="#9de346"/><stop offset=".702" stop-color="#73ac2c"/><stop offset="1" stop-color="#487511"/></linearGradient><path fill="url(#SVGID_7_)" d="M31.5 36.8l4.1-10.7-4.1 10.6z"/><linearGradient id="SVGID_8_" gradientUnits="userSpaceOnUse" x1="-9843.522" y1="-13696.102" x2="-9843.522" y2="-11886.352" gradientTransform="translate(296.648 388.288) scale(.02835)"><stop offset="0" stop-color="#5ab31b"/><stop offset="1" stop-color="#255900"/></linearGradient><path fill="url(#SVGID_8_)" d="M21 20l-6.8 15.9.1.2z"/><linearGradient id="SVGID_9_" gradientUnits="userSpaceOnUse" x1="-9843.522" y1="-13697.932" x2="-9843.522" y2="-11888.182" gradientTransform="translate(296.648 388.288) scale(.02835)"><stop offset="0" stop-color="#9de346"/><stop offset=".702" stop-color="#73ac2c"/><stop offset="1" stop-color="#487511"/></linearGradient><path fill="url(#SVGID_9_)" d="M21 20l-6.8 15.9.1.2z"/><linearGradient id="SVGID_10_" gradientUnits="userSpaceOnUse" x1="-9376.786" y1="-13696.102" x2="-9376.786" y2="-11886.352" gradientTransform="translate(296.648 388.288) scale(.02835)"><stop offset="0" stop-color="#5ab31b"/><stop offset="1" stop-color="#255900"/></linearGradient><path fill="url(#SVGID_10_)" d="M33.7 10.3L28 25.1l5.7-14.8z"/><linearGradient id="SVGID_11_" gradientUnits="userSpaceOnUse" x1="-9376.786" y1="-13697.932" x2="-9376.786" y2="-11888.182" gradientTransform="translate(296.648 388.288) scale(.02835)"><stop offset="0" stop-color="#9de346"/><stop offset=".702" stop-color="#73ac2c"/><stop offset="1" stop-color="#487511"/></linearGradient><path fill="url(#SVGID_11_)" d="M33.7 10.3L28 25.1l5.7-14.8z"/></svg>