<svg width="122" height="78" viewBox="0 0 122 78" fill="none" xmlns="http://www.w3.org/2000/svg">
<g clip-path="url(#clip0_773_295)">
<path d="M112.949 63.1808L110.437 65.4195C108.743 63.7264 106.829 62.8798 104.696 62.8798C102.902 62.8798 101.387 63.463 100.171 64.6106C98.9351 65.7581 98.3171 67.1879 98.3171 68.881C98.3171 70.0662 98.5962 71.1009 99.1344 72.0227C99.6727 72.9445 100.45 73.6594 101.447 74.1861C102.444 74.7129 103.54 74.9575 104.776 74.9575C105.813 74.9575 106.769 74.7693 107.627 74.4119C108.484 74.0545 109.441 73.3772 110.457 72.4178L112.889 74.807C111.514 76.0862 110.198 76.9704 108.962 77.4595C107.726 77.9487 106.311 78.212 104.736 78.212C101.826 78.212 99.4335 77.3467 97.5795 75.5971C95.7256 73.8475 94.7887 71.6088 94.7887 68.8998C94.7887 67.1314 95.2073 65.57 96.0645 64.1967C96.9018 62.8234 98.1178 61.7322 99.6926 60.8857C101.267 60.0579 102.962 59.6252 104.796 59.6252C106.331 59.6252 107.826 59.9262 109.261 60.5471C110.697 61.1867 111.932 62.0521 112.949 63.1808ZM79.5586 60.0767H83.1668V66.1908L88.2501 60.0767H92.556L85.9975 67.978L93.174 77.7794H88.9478L83.1668 69.8969V77.7794H79.5586V60.0767ZM75.2527 60.0767V77.7605H71.7044V66.6799L64.6475 77.7605H61.5776V60.0767H65.1259V71.5148L72.3024 60.0767H75.2527ZM43.8158 60.0767H47.4439V66.7552H53.7034V60.0767H57.3116V77.7605H53.7034V69.991H47.4439V77.7605H43.8158V60.0767ZM30.2802 60.0767H40.5067V63.3878H33.8286V66.5671H40.5067V69.8216H33.8286V74.4872H40.5067V77.7982H30.2802V60.0767ZM19.974 65.4759V69.9533H21.1501C22.3462 69.9533 23.1635 69.7464 23.5423 69.3137C23.941 68.8998 24.1204 68.3355 24.1204 67.6582C24.1204 66.9621 23.921 66.4166 23.5024 66.0403C23.0838 65.6453 22.2665 65.4571 21.0106 65.4571H19.974V65.4759ZM16.3858 65.4759H15.5485C14.2926 65.4759 13.4554 65.6641 13.0367 66.0403C12.6181 66.4166 12.4188 66.9809 12.4188 67.6958C12.4188 68.5424 12.6779 69.1444 13.1763 69.4642C13.6946 69.784 14.4322 69.9533 15.409 69.9533H16.3858V65.4759ZM19.974 60.0767V62.3719H20.7714C25.2766 62.3719 27.5292 64.1214 27.5292 67.6206C27.5292 68.6176 27.3498 69.4642 26.991 70.1414C26.6322 70.8375 26.1139 71.4019 25.4361 71.8534C24.7583 72.3049 24.0407 72.6059 23.323 72.7376C22.6054 72.8693 21.489 72.9445 19.974 72.9445V77.7417H16.3858V72.9445C14.8109 72.9445 13.5152 72.794 12.5184 72.493C11.5018 72.192 10.6844 71.6276 10.0266 70.7999C9.36876 69.9721 9.0498 68.9375 9.0498 67.677C9.0498 66.4918 9.30895 65.5136 9.82726 64.7046C10.3456 63.8957 11.0831 63.2937 12.04 62.9174C12.9969 62.5412 14.4322 62.3342 16.3858 62.3342V60.0391H19.974V60.0767Z" fill="white"/>
<path d="M68.2358 45.9861C68.2358 45.9861 68.9336 43.5593 66.8205 38.1225C64.6875 32.6857 65.5247 29.6757 66.2424 27.4934C66.2424 27.4934 61.6574 31.0114 64.528 35.8274C67.3986 40.6622 67.578 42.995 67.3587 45.0267C67.1594 47.0585 68.2358 45.9861 68.2358 45.9861Z" fill="#B61E23"/>
<path d="M64.9671 35.3006C66.8011 39.0819 68.675 43.089 67.3593 45.7604C67.3394 45.5723 67.3394 45.3465 67.3792 45.0267C67.5786 42.9949 67.3992 40.6622 64.5485 35.8274C61.6779 30.9925 66.2629 27.4934 66.2629 27.4934C66.2629 27.4934 63.0335 31.2935 64.9671 35.3006Z" fill="#E50000"/>
<path d="M68.2364 45.9861C68.2364 45.9861 67.3793 40.4176 61.0799 35.1501C54.8005 29.8826 54.3021 23.5239 54.3021 23.5239C54.3021 23.5239 50.7737 29.0548 55.7175 32.5539C60.6613 36.0531 65.8842 40.3423 66.9806 45.0267C68.077 49.7298 68.2364 45.9861 68.2364 45.9861Z" fill="#B61E23"/>
<path d="M55.7773 31.4064C58.5881 34.1718 66.223 38.7245 66.9008 44.7257C65.6649 40.1542 60.5417 35.9966 55.7175 32.5727C50.7737 29.0736 54.3021 23.5427 54.3021 23.5427C54.3021 23.5427 52.7871 28.4716 55.7773 31.4064Z" fill="#E50000"/>
<path d="M42.1621 32.5728C42.1621 32.5728 64.5288 43.4652 67.0605 51.3477C67.0605 51.3665 77.4664 40.681 42.1621 32.5728Z" fill="#E50000"/>
<path d="M67.0605 51.3665C67.0605 51.3665 68.5556 45.0643 61.1 40.5869C53.6445 36.1095 42.1621 32.5728 42.1621 32.5728C77.4664 40.681 67.0605 51.3665 67.0605 51.3665Z" fill="#B61E23"/>
<path d="M34.4273 19.5168C34.4273 19.5168 26.3139 23.919 29.663 29.6192C33.012 35.3194 53.0263 40.8315 53.0263 40.8315C53.0263 40.8315 29.9221 31.2747 34.4273 19.5168Z" fill="#E50000"/>
<path d="M29.663 29.6192C26.3139 23.919 34.4273 19.5168 34.4273 19.5168C34.4273 19.5168 29.025 25.4052 32.7728 30.3341C36.4607 35.1877 53.0263 40.8127 53.0263 40.8127C53.0263 40.8127 33.012 35.3194 29.663 29.6192Z" fill="#B61E23"/>
<path d="M28.9247 29.1301C28.9247 29.1301 23.6221 35.6581 28.6655 39.4394C33.709 43.2019 53.0257 41.1513 53.0257 41.1513C53.0257 41.1513 29.5227 40.7563 28.9247 29.1301Z" fill="#E50000"/>
<path d="M28.6655 39.4394C23.6221 35.6769 28.9247 29.1301 28.9247 29.1301C28.9247 29.1301 26.5126 36.0155 31.6159 39.0067C36.6394 41.9227 53.0257 41.1513 53.0257 41.1513C53.0257 41.1513 33.7289 43.2019 28.6655 39.4394Z" fill="#B61E23"/>
<path d="M28.0484 40.2295C28.0484 40.2295 26.2942 47.5664 32.0154 48.8645C37.7366 50.1625 52.9069 41.4899 52.9069 41.4899C52.9069 41.4899 33.2713 49.6546 28.0484 40.2295Z" fill="#E50000"/>
<path d="M32.0154 48.8645C26.2942 47.5664 28.0484 40.2295 28.0484 40.2295C28.0484 40.2295 28.8458 46.8139 34.288 47.4347C39.6304 48.0555 52.9069 41.4899 52.9069 41.4899C52.9069 41.4899 37.7366 50.1625 32.0154 48.8645Z" fill="#B61E23"/>
<path d="M31.1582 49.2972C31.1582 49.2972 32.5138 56.2014 37.916 55.3549C43.3383 54.4895 53.0066 41.791 53.0066 41.791C53.0066 41.791 39.3115 55.5994 31.1582 49.2972Z" fill="#E50000"/>
<path d="M37.9356 55.3361C32.5134 56.2014 31.1777 49.2784 31.1777 49.2784C31.1777 49.2784 34.4271 54.6588 39.331 53.3231C44.1751 52.0062 53.0261 41.7722 53.0261 41.7722C53.0261 41.7722 43.3578 54.4895 37.9356 55.3361Z" fill="#B61E23"/>
<path d="M87.8324 19.5168C87.8324 19.5168 95.9458 23.919 92.5968 29.6192C89.2478 35.3194 69.2334 40.8315 69.2334 40.8315C69.2334 40.8315 92.3376 31.2747 87.8324 19.5168Z" fill="#E50000"/>
<path d="M92.5968 29.6192C95.9458 23.919 87.8324 19.5168 87.8324 19.5168C87.8324 19.5168 93.2347 25.4052 89.487 30.3341C85.7991 35.1877 69.2334 40.8127 69.2334 40.8127C69.2334 40.8127 89.2478 35.3194 92.5968 29.6192Z" fill="#B61E23"/>
<path d="M93.3344 29.1301C93.3344 29.1301 98.637 35.6581 93.5935 39.4394C88.5501 43.2019 69.2334 41.1513 69.2334 41.1513C69.2334 41.1513 92.7363 40.7563 93.3344 29.1301Z" fill="#E50000"/>
<path d="M93.5935 39.4394C98.637 35.6769 93.3344 29.1301 93.3344 29.1301C93.3344 29.1301 95.7465 36.0155 90.6432 39.0067C85.6197 41.9227 69.2334 41.1513 69.2334 41.1513C69.2334 41.1513 88.5501 43.2019 93.5935 39.4394Z" fill="#B61E23"/>
<path d="M94.211 40.2295C94.211 40.2295 95.9653 47.5664 90.244 48.8645C84.5228 50.1625 69.3525 41.4899 69.3525 41.4899C69.3525 41.4899 89.0081 49.6546 94.211 40.2295Z" fill="#E50000"/>
<path d="M90.244 48.8645C95.9653 47.5664 94.211 40.2295 94.211 40.2295C94.211 40.2295 93.4136 46.8139 87.9715 47.4347C82.629 48.0555 69.3525 41.4899 69.3525 41.4899C69.3525 41.4899 84.5427 50.1625 90.244 48.8645Z" fill="#B61E23"/>
<path d="M91.1013 49.2972C91.1013 49.2972 89.7457 56.2014 84.3435 55.3549C78.9212 54.4895 69.2529 41.791 69.2529 41.791C69.2529 41.791 82.948 55.5994 91.1013 49.2972Z" fill="#E50000"/>
<path d="M84.3239 55.3361C89.7461 56.2014 91.0818 49.2784 91.0818 49.2784C91.0818 49.2784 87.8324 54.6588 82.9285 53.3231C78.0844 52.0062 69.2334 41.7722 69.2334 41.7722C69.2334 41.7722 78.9017 54.4895 84.3239 55.3361Z" fill="#B61E23"/>
<path d="M57.9496 50.52C57.9496 50.52 43.796 72.098 36.1211 72.8881C36.1012 72.8881 43.9355 86.847 57.9496 50.52Z" fill="#E50000"/>
<path d="M36.1016 72.8881C36.1016 72.8881 41.5836 76.0863 47.0656 69.088C52.5476 62.0897 57.93 50.52 57.93 50.52C43.9359 86.847 36.1016 72.8881 36.1016 72.8881Z" fill="#B61E23"/>
<path d="M59.1659 54.0757C59.1659 54.0757 57.312 70.5179 53.6241 73.9229C53.6041 73.9041 61.0198 77.93 59.1659 54.0757Z" fill="#B61E23"/>
<path d="M50.415 76.9706C50.415 76.9706 54.5814 76.3686 56.4752 69.8218C58.349 63.2562 59.1265 54.0757 59.1265 54.0757C58.4886 81.6173 50.415 76.9706 50.415 76.9706Z" fill="#E50000"/>
<path d="M62.216 74.6189C62.216 74.6189 70.2098 74.1862 70.0504 66.774C69.8909 59.3431 56.9932 43.8604 56.9932 43.8604C56.9932 43.8604 70.5487 64.968 62.216 74.6189Z" fill="#E50000"/>
<path d="M70.0705 66.774C70.2299 74.205 62.2361 74.6189 62.2361 74.6189C62.2361 74.6189 68.7946 71.3455 68.0172 64.4977C67.2597 57.7628 57.0332 43.8604 57.0332 43.8604C57.0332 43.8604 69.911 59.3431 70.0705 66.774Z" fill="#B61E23"/>
<path d="M113.004 62.984L110.492 65.2227C108.798 63.5296 106.884 62.683 104.751 62.683C102.957 62.683 101.442 63.2662 100.226 64.4138C98.9902 65.5614 98.3722 66.9911 98.3722 68.6842C98.3722 69.8694 98.6513 70.9041 99.1895 71.8259C99.7278 72.7477 100.505 73.4626 101.502 73.9894C102.499 74.5161 103.595 74.7607 104.831 74.7607C105.868 74.7607 106.825 74.5726 107.682 74.2151C108.539 73.8577 109.496 73.1804 110.512 72.221L112.944 74.6102C111.569 75.8894 110.253 76.7736 109.017 77.2628C107.781 77.7519 106.366 78.0153 104.791 78.0153C101.881 78.0153 99.4886 77.1499 97.6346 75.4003C95.7807 73.6507 94.8438 71.4121 94.8438 68.703C94.8438 66.9347 95.2624 65.3732 96.1196 63.9999C96.9569 62.6266 98.1729 61.5355 99.7477 60.6889C101.323 59.8612 103.017 59.4285 104.851 59.4285C106.386 59.4285 107.881 59.7295 109.316 60.3503C110.752 60.9899 111.988 61.8553 113.004 62.984ZM79.6137 59.88H83.2219V65.994L88.3052 59.88H92.6111L86.0526 67.7812L93.2291 77.5826H89.0029L83.2219 69.7001V77.5826H79.6137V59.88ZM75.3078 59.88V77.5638H71.7595V66.4832L64.7026 77.5638H61.6327V59.88H65.181V71.318L72.3575 59.88H75.3078ZM47.499 74.2339V77.5826H43.8709V74.2339H47.499ZM50.549 66.5584H53.7585V59.88H57.3667V77.5638H53.7585V69.7942H50.549V66.5584ZM30.3353 59.88H40.5618V63.1722H33.8837V66.3515H40.5618V67.9505H37.9703V69.606H33.8637V74.2716H40.5418V77.5826H30.3154V59.88H30.3353ZM20.0291 65.2792V69.7565H21.2052C22.4013 69.7565 23.2186 69.5496 23.5974 69.1169C23.9961 68.7031 24.1755 68.1387 24.1755 67.4614C24.1755 66.7654 23.9761 66.2198 23.5575 65.8435C23.1389 65.4485 22.3216 65.2604 21.0657 65.2604H20.0291V65.2792ZM16.4408 65.2792H15.6036C14.3477 65.2792 13.5105 65.4673 13.0918 65.8435C12.6732 66.2198 12.4738 66.7842 12.4738 67.499C12.4738 68.3456 12.733 68.9476 13.2314 69.2674C13.7497 69.5872 14.4872 69.7565 15.464 69.7565H16.4408V65.2792ZM20.0291 59.88V62.1751H20.8265C25.3317 62.1751 27.5843 63.9247 27.5843 67.4238C27.5843 68.4209 27.4049 69.2674 27.0461 69.9447C26.6872 70.6407 26.1689 71.2051 25.4912 71.6566C24.8134 72.1081 24.0957 72.4091 23.3781 72.5408C22.6604 72.6725 21.5441 72.7477 20.0291 72.7477V77.5449H16.4408V72.7477C14.866 72.7477 13.5703 72.5972 12.5536 72.2962C11.5369 71.9952 10.7196 71.4309 10.0618 70.6031C9.40392 69.7754 9.08496 68.7407 9.08496 67.4802C9.08496 66.295 9.34411 65.3168 9.86241 64.5079C10.3807 63.6989 11.1183 63.0969 12.0752 62.7207C13.032 62.3444 14.4673 62.1375 16.4209 62.1375V59.8423H20.0291V59.88Z" fill="white"/>
<path fill-rule="evenodd" clip-rule="evenodd" d="M51.0726 16.9397C48.6007 23.6746 49.2585 29.3372 53.0661 33.9086C46.1487 29.1114 45.471 23.4488 51.0726 16.9397Z" fill="#E50000"/>
<path fill-rule="evenodd" clip-rule="evenodd" d="M59.2859 13.29C57.9503 19.7427 58.349 26.1578 60.4621 32.5353C55.8572 25.8944 55.4784 19.4794 59.2859 13.29Z" fill="#B61E23"/>
<path d="M36.7797 10.6562C20.0357 19.6752 12.1405 33.7392 12.1405 51.028C12.1405 53.3043 12.3199 55.543 12.6588 57.744C11.8614 54.3954 11.4229 50.9151 11.4229 47.3595C11.4229 29.8262 19.6806 15.568 36.7598 6.53628C53.2697 -2.19438 68.711 -2.19439 85.2209 6.53628C102.3 15.568 110.558 29.8262 110.558 47.3595C110.558 50.9339 110.139 54.4142 109.322 57.744C109.661 55.543 109.84 53.3043 109.84 51.028C109.84 33.7392 101.959 19.677 85.2209 10.6562C68.7934 1.80303 53.2094 1.80661 36.7797 10.6562Z" fill="white"/>
</g>
<defs>
<clipPath id="clip0_773_295">
<rect width="122" height="78" fill="white"/>
</clipPath>
</defs>
</svg>
