<svg width="161" height="103" viewBox="0 0 161 103" fill="none" xmlns="http://www.w3.org/2000/svg">
<g clip-path="url(#clip0_178_3271)">
<path d="M149.056 83.4311L145.742 86.3874C143.506 84.1516 140.98 83.0337 138.165 83.0337C135.798 83.0337 133.798 83.8038 132.194 85.3191C130.562 86.8345 129.747 88.7225 129.747 90.9583C129.747 92.5234 130.115 93.8897 130.826 95.107C131.536 96.3242 132.562 97.2682 133.877 97.9638C135.193 98.6594 136.639 98.9824 138.27 98.9824C139.638 98.9824 140.901 98.7339 142.032 98.2619C143.164 97.7899 144.426 96.8956 145.768 95.6287L148.977 98.7836C147.162 100.473 145.426 101.64 143.795 102.286C142.164 102.932 140.296 103.28 138.218 103.28C134.377 103.28 131.22 102.137 128.774 99.827C126.327 97.5167 125.091 94.5604 125.091 90.9832C125.091 88.648 125.643 86.5861 126.774 84.7726C127.879 82.9591 129.484 81.5183 131.562 80.4004C133.64 79.3073 135.877 78.736 138.297 78.736C140.322 78.736 142.295 79.1334 144.19 79.9532C146.084 80.7979 147.715 81.9406 149.056 83.4311ZM104.992 79.3322H109.753V87.4059L116.462 79.3322H122.144L113.489 89.7659L122.96 102.709H117.383L109.753 92.2998V102.709H104.992V79.3322ZM99.3095 79.3322V102.684H94.6269V88.0518L85.3141 102.684H81.2628V79.3322H85.9455V94.4362L95.4161 79.3322H99.3095ZM57.8231 79.3322H62.611V88.1511H70.8715V79.3322H75.6331V102.684H70.8715V92.424H62.611V102.684H57.8231V79.3322ZM39.9605 79.3322H53.4561V83.7044H44.6432V87.9027H53.4561V92.2004H44.6432V98.3613H53.4561V102.734H39.9605V79.3322ZM26.3597 86.4619V92.3743H27.9118C29.4903 92.3743 30.5688 92.1011 31.0687 91.5297C31.5948 90.9832 31.8316 90.2379 31.8316 89.3436C31.8316 88.4244 31.5685 87.704 31.0161 87.2071C30.4636 86.6855 29.385 86.437 27.7277 86.437H26.3597V86.4619ZM21.6244 86.4619H20.5195C18.8621 86.4619 17.7572 86.7103 17.2048 87.2071C16.6523 87.704 16.3893 88.4493 16.3893 89.3933C16.3893 90.5112 16.7313 91.3061 17.3889 91.7284C18.0729 92.1508 19.0463 92.3743 20.3354 92.3743H21.6244V86.4619ZM26.3597 79.3322V82.3629H27.412C33.3574 82.3629 36.3301 84.6732 36.3301 89.2939C36.3301 90.6105 36.0934 91.7284 35.6198 92.6227C35.1463 93.5419 34.4623 94.2872 33.5679 94.8834C32.6734 95.4796 31.7264 95.8771 30.7793 96.051C29.8322 96.2249 28.359 96.3242 26.3597 96.3242V102.659H21.6244V96.3242C19.5461 96.3242 17.8362 96.1255 16.5208 95.728C15.1791 95.3305 14.1005 94.5853 13.2324 93.4922C12.3643 92.3992 11.9434 91.0329 11.9434 89.3684C11.9434 87.8034 12.2854 86.5116 12.9693 85.4434C13.6533 84.3751 14.6267 83.5802 15.8894 83.0833C17.1522 82.5865 19.0463 82.3132 21.6244 82.3132V79.2825H26.3597V79.3322Z" fill="#433C3C"/>
<path d="M90.0494 60.7254C90.0494 60.7254 90.9701 57.5207 88.1816 50.3413C85.3667 43.1619 86.4716 39.1872 87.4187 36.3055C87.4187 36.3055 81.368 40.951 85.1563 47.3106C88.9445 53.695 89.1812 56.7755 88.8919 59.4584C88.6288 62.1414 90.0494 60.7254 90.0494 60.7254Z" fill="#B61E23"/>
<path d="M85.7353 46.615C88.1556 51.6083 90.6285 56.8997 88.8922 60.4273C88.8659 60.1788 88.8659 59.8807 88.9185 59.4584C89.1816 56.7755 88.9448 53.695 85.1829 47.3106C81.3946 40.9261 87.4453 36.3055 87.4453 36.3055C87.4453 36.3055 83.1835 41.3236 85.7353 46.615Z" fill="#E50000"/>
<path d="M90.0496 60.7253C90.0496 60.7253 88.9184 53.372 80.6054 46.4162C72.3186 39.4604 71.6609 31.0637 71.6609 31.0637C71.6609 31.0637 67.0045 38.3673 73.5287 42.988C80.0529 47.6086 86.9454 53.2727 88.3923 59.4584C89.8392 65.6689 90.0496 60.7253 90.0496 60.7253Z" fill="#B61E23"/>
<path d="M73.6076 41.4726C77.317 45.1244 87.3926 51.1362 88.2871 59.0609C86.656 53.0242 79.8951 47.5341 73.5287 43.0128C67.0045 38.3922 71.6609 31.0886 71.6609 31.0886C71.6609 31.0886 69.6616 37.5972 73.6076 41.4726Z" fill="#E50000"/>
<path d="M55.6399 43.0128C55.6399 43.0128 85.1566 57.3965 88.4976 67.8053C88.4976 67.8302 102.23 53.7198 55.6399 43.0128Z" fill="#E50000"/>
<path d="M88.4976 67.8302C88.4976 67.8302 90.4706 59.508 80.6317 53.5956C70.7928 47.6832 55.6399 43.0128 55.6399 43.0128C102.23 53.7198 88.4976 67.8302 88.4976 67.8302Z" fill="#B61E23"/>
<path d="M45.4331 25.7725C45.4331 25.7725 34.726 31.5855 39.1457 39.1127C43.5653 46.6399 69.9777 53.9187 69.9777 53.9187C69.9777 53.9187 39.4876 41.2988 45.4331 25.7725Z" fill="#E50000"/>
<path d="M39.1457 39.1127C34.726 31.5855 45.4331 25.7725 45.4331 25.7725C45.4331 25.7725 38.3038 33.5481 43.2496 40.0567C48.1164 46.466 69.9777 53.8938 69.9777 53.8938C69.9777 53.8938 43.5653 46.6399 39.1457 39.1127Z" fill="#B61E23"/>
<path d="M38.172 38.4668C38.172 38.4668 31.1743 47.087 37.83 52.0803C44.4857 57.0488 69.9774 54.341 69.9774 54.341C69.9774 54.341 38.9612 53.8193 38.172 38.4668Z" fill="#E50000"/>
<path d="M37.83 52.0803C31.1743 47.1119 38.172 38.4668 38.172 38.4668C38.172 38.4668 34.9888 47.559 41.7234 51.509C48.3528 55.3595 69.9774 54.341 69.9774 54.341C69.9774 54.341 44.512 57.0488 37.83 52.0803Z" fill="#B61E23"/>
<path d="M37.0142 53.1237C37.0142 53.1237 34.6992 62.8121 42.2493 64.5262C49.7995 66.2403 69.8193 54.7881 69.8193 54.7881C69.8193 54.7881 43.9067 65.5696 37.0142 53.1237Z" fill="#E50000"/>
<path d="M42.2493 64.5262C34.6992 62.8121 37.0142 53.1237 37.0142 53.1237C37.0142 53.1237 38.0665 61.8184 45.2484 62.6382C52.2987 63.458 69.8193 54.7881 69.8193 54.7881C69.8193 54.7881 49.7995 66.2403 42.2493 64.5262Z" fill="#B61E23"/>
<path d="M41.1179 65.0975C41.1179 65.0975 42.9068 74.2146 50.0361 73.0967C57.1916 71.954 69.9506 55.1855 69.9506 55.1855C69.9506 55.1855 51.8776 73.4197 41.1179 65.0975Z" fill="#E50000"/>
<path d="M50.0627 73.0719C42.9071 74.2147 41.1445 65.0728 41.1445 65.0728C41.1445 65.0728 45.4326 72.1776 51.9042 70.4138C58.2968 68.6749 69.9772 55.1607 69.9772 55.1607C69.9772 55.1607 57.2182 71.954 50.0627 73.0719Z" fill="#B61E23"/>
<path d="M115.91 25.7723C115.91 25.7723 126.617 31.5854 122.197 39.1126C117.777 46.6398 91.365 53.9186 91.365 53.9186C91.365 53.9186 121.855 41.2987 115.91 25.7723Z" fill="#E50000"/>
<path d="M122.197 39.1126C126.617 31.5854 115.91 25.7723 115.91 25.7723C115.91 25.7723 123.039 33.548 118.093 40.0566C113.226 46.4659 91.365 53.8937 91.365 53.8937C91.365 53.8937 117.777 46.6398 122.197 39.1126Z" fill="#B61E23"/>
<path d="M123.17 38.4667C123.17 38.4667 130.168 47.087 123.512 52.0803C116.857 57.0487 91.365 54.3409 91.365 54.3409C91.365 54.3409 122.381 53.8192 123.17 38.4667Z" fill="#E50000"/>
<path d="M123.512 52.0803C130.168 47.1118 123.17 38.4667 123.17 38.4667C123.17 38.4667 126.354 47.559 119.619 51.5089C112.99 55.3594 91.365 54.3409 91.365 54.3409C91.365 54.3409 116.857 57.0487 123.512 52.0803Z" fill="#B61E23"/>
<path d="M124.328 53.1237C124.328 53.1237 126.643 62.8121 119.092 64.5262C111.542 66.2403 91.5225 54.7881 91.5225 54.7881C91.5225 54.7881 117.461 65.5696 124.328 53.1237Z" fill="#E50000"/>
<path d="M119.092 64.5262C126.643 62.8121 124.328 53.1237 124.328 53.1237C124.328 53.1237 123.275 61.8184 116.093 62.6382C109.043 63.458 91.5225 54.7881 91.5225 54.7881C91.5225 54.7881 111.569 66.2403 119.092 64.5262Z" fill="#B61E23"/>
<path d="M120.224 65.0976C120.224 65.0976 118.435 74.2147 111.306 73.0968C104.151 71.954 91.3916 55.1855 91.3916 55.1855C91.3916 55.1855 109.465 73.4197 120.224 65.0976Z" fill="#E50000"/>
<path d="M111.28 73.0719C118.435 74.2147 120.198 65.0728 120.198 65.0728C120.198 65.0728 115.91 72.1776 109.438 70.4138C103.045 68.6749 91.365 55.1607 91.365 55.1607C91.365 55.1607 104.124 71.954 111.28 73.0719Z" fill="#B61E23"/>
<path d="M76.4754 66.7124C76.4754 66.7124 57.7973 95.2064 47.669 96.2498C47.6427 96.2498 57.9814 114.683 76.4754 66.7124Z" fill="#E50000"/>
<path d="M47.6426 96.2498C47.6426 96.2498 54.8771 100.473 62.1115 91.2317C69.346 81.9904 76.449 66.7124 76.449 66.7124C57.9813 114.683 47.6426 96.2498 47.6426 96.2498Z" fill="#B61E23"/>
<path d="M78.08 71.4072C78.08 71.4072 75.6335 93.1193 70.7667 97.6158C70.7403 97.5909 80.5266 102.907 78.08 71.4072Z" fill="#B61E23"/>
<path d="M66.5312 101.64C66.5312 101.64 72.0295 100.845 74.5286 92.2002C77.0015 83.5302 78.0275 71.4072 78.0275 71.4072C77.1857 107.776 66.5312 101.64 66.5312 101.64Z" fill="#E50000"/>
<path d="M82.1044 98.535C82.1044 98.535 92.6536 97.9636 92.4431 88.1758C92.2327 78.3631 75.2119 57.918 75.2119 57.918C75.2119 57.918 93.1008 85.7909 82.1044 98.535Z" fill="#E50000"/>
<path d="M92.4695 88.1758C92.68 97.9885 82.1308 98.535 82.1308 98.535C82.1308 98.535 90.7859 94.2124 89.7599 85.1699C88.7602 76.2764 75.2646 57.918 75.2646 57.918C75.2646 57.918 92.2591 78.3631 92.4695 88.1758Z" fill="#B61E23"/>
<path d="M149.129 83.1712L145.814 86.1275C143.578 83.8917 141.053 82.7738 138.238 82.7738C135.87 82.7738 133.871 83.5439 132.266 85.0593C130.635 86.5746 129.819 88.4626 129.819 90.6984C129.819 92.2635 130.188 93.6298 130.898 94.8471C131.608 96.0643 132.634 97.0084 133.95 97.7039C135.265 98.3995 136.712 98.7225 138.343 98.7225C139.711 98.7225 140.974 98.474 142.105 98.002C143.236 97.53 144.499 96.6357 145.84 95.3688L149.05 98.5237C147.235 100.213 145.498 101.381 143.867 102.026C142.236 102.672 140.369 103.02 138.29 103.02C134.449 103.02 131.293 101.877 128.846 99.5671C126.399 97.2568 125.163 94.3006 125.163 90.7233C125.163 88.3881 125.715 86.3262 126.847 84.5127C127.952 82.6992 129.556 81.2584 131.635 80.1405C133.713 79.0474 135.949 78.4761 138.369 78.4761C140.395 78.4761 142.368 78.8735 144.262 79.6933C146.156 80.538 147.787 81.6807 149.129 83.1712ZM105.064 79.0723H109.826V87.146L116.534 79.0723H122.217L113.562 89.506L123.032 102.449H117.455L109.826 92.0399V102.449H105.064V79.0723ZM99.382 79.0723V102.424H94.6993V87.7919L85.3866 102.424H81.3353V79.0723H86.0179V94.1764L95.4885 79.0723H99.382ZM62.6835 98.0269V102.449H57.8955V98.0269H62.6835ZM66.7085 87.8913H70.9439V79.0723H75.7055V102.424H70.9439V92.1641H66.7085V87.8913ZM40.033 79.0723H53.5286V83.4197H44.7156V87.618H53.5286V89.7296H50.1086V91.9157H44.6893V98.0766H53.5022V102.449H40.0067V79.0723H40.033ZM26.4321 86.202V92.1144H27.9843C29.5627 92.1144 30.6413 91.8412 31.1411 91.2698C31.6673 90.7233 31.904 89.978 31.904 89.0837C31.904 88.1645 31.641 87.4441 31.0885 86.9473C30.5361 86.4256 29.4575 86.1772 27.8001 86.1772H26.4321V86.202ZM21.6969 86.202H20.592C18.9346 86.202 17.8297 86.4504 17.2772 86.9473C16.7248 87.4441 16.4617 88.1894 16.4617 89.1334C16.4617 90.2513 16.8037 91.0462 17.4614 91.4685C18.1454 91.8909 19.1188 92.1144 20.4078 92.1144H21.6969V86.202ZM26.4321 79.0723V82.103H27.4844C33.4299 82.103 36.4026 84.4134 36.4026 89.034C36.4026 90.3506 36.1658 91.4685 35.6923 92.3629C35.2187 93.282 34.5348 94.0273 33.6403 94.6235C32.7459 95.2197 31.7988 95.6172 30.8518 95.7911C29.9047 95.965 28.4315 96.0644 26.4321 96.0644V102.399H21.6969V96.0644C19.6186 96.0644 17.9086 95.8656 16.567 95.4681C15.2253 95.0707 14.1467 94.3254 13.2786 93.2323C12.4104 92.1393 11.9895 90.773 11.9895 89.1085C11.9895 87.5435 12.3315 86.2517 13.0155 85.1835C13.6995 84.1153 14.6728 83.3203 15.9356 82.8235C17.1983 82.3266 19.0924 82.0533 21.6705 82.0533V79.0226H26.4321V79.0723Z" fill="#433C3C"/>
<path fill-rule="evenodd" clip-rule="evenodd" d="M67.399 22.369C64.1369 31.2625 65.005 38.74 70.0297 44.7766C60.9011 38.4419 60.0067 30.9644 67.399 22.369Z" fill="#E50000"/>
<path fill-rule="evenodd" clip-rule="evenodd" d="M78.2371 17.5498C76.4745 26.0707 77.0006 34.5419 79.7892 42.9634C73.7122 34.1941 73.2124 25.7229 78.2371 17.5498Z" fill="#B61E23"/>
<path d="M48.5372 14.0717C26.4406 25.9813 16.0215 44.553 16.0215 67.383C16.0215 70.3889 16.2583 73.3452 16.7055 76.2517C15.6532 71.8298 15.0745 67.234 15.0745 62.5388C15.0745 39.3859 25.972 20.5577 48.5109 8.63121C70.2985 -2.89774 90.676 -2.89774 112.464 8.63121C135.003 20.5577 145.9 39.3859 145.9 62.5388C145.9 67.2588 145.348 71.8546 144.269 76.2517C144.716 73.3452 144.953 70.3889 144.953 67.383C144.953 44.553 134.553 25.9837 112.464 14.0717C90.7848 2.3809 70.219 2.38563 48.5372 14.0717Z" fill="#433C3C"/>
</g>
<defs>
<clipPath id="clip0_178_3271">
<rect width="161" height="103" fill="white"/>
</clipPath>
</defs>
</svg>
