<svg width="91" height="125" viewBox="0 0 91 125" fill="none" xmlns="http://www.w3.org/2000/svg">
<path d="M45.5 0C20.4236 0 0 20.7642 0 46.2587C0 84.6018 40.4439 120.58 42.2145 122.122L45.5 125L48.7855 122.122C50.5536 120.58 91 84.6018 91 46.2587C91 20.7642 70.5764 0 45.5 0ZM45.5 81.8789C26.1159 81.8789 10.437 65.9116 10.437 46.2587C10.437 26.6058 26.1159 10.6385 45.5 10.6385C64.8841 10.6385 80.563 26.6058 80.563 46.2587C80.563 65.9116 64.8841 81.8789 45.5 81.8789Z" fill="#E50000"/>
<path d="M45.5 81.8789C26.1159 81.8789 10.437 65.9116 10.437 46.2587C10.437 26.6058 26.1159 10.6385 45.5 10.6385C64.8841 10.6385 80.563 26.6058 80.563 46.2587C80.563 65.9116 64.8841 81.8789 45.5 81.8789Z" fill="white"/>
<g clip-path="url(#clip0_431_2866)">
<path d="M51.22 46.5521C51.22 46.5521 51.7244 44.8167 50.1968 40.929C48.6549 37.0412 49.2601 34.8888 49.7789 33.3284C49.7789 33.3284 46.4644 35.844 48.5396 39.2878C50.6148 42.7451 50.7445 44.4132 50.5859 45.866C50.4418 47.3189 51.22 46.5521 51.22 46.5521Z" fill="#B61E23"/>
<path d="M48.8569 38.9111C50.1827 41.615 51.5373 44.4804 50.5862 46.3907C50.5718 46.2561 50.5718 46.0947 50.6006 45.866C50.7447 44.4131 50.615 42.7451 48.5542 39.2878C46.4791 35.8305 49.7936 33.3284 49.7936 33.3284C49.7936 33.3284 47.459 36.0457 48.8569 38.9111Z" fill="#E50000"/>
<path d="M51.2204 46.5521C51.2204 46.5521 50.6007 42.5702 46.0469 38.8035C41.5074 35.0368 41.1472 30.4899 41.1472 30.4899C41.1472 30.4899 38.5964 34.4449 42.1703 36.9471C45.7442 39.4492 49.5199 42.5164 50.3125 45.866C51.1051 49.2291 51.2204 46.5521 51.2204 46.5521Z" fill="#B61E23"/>
<path d="M42.2136 36.1265C44.2455 38.104 49.7649 41.3595 50.2549 45.6508C49.3614 42.3819 45.6578 39.4089 42.1703 36.9606C38.5964 34.4584 41.1472 30.5034 41.1472 30.5034C41.1472 30.5034 40.0519 34.0279 42.2136 36.1265Z" fill="#E50000"/>
<path d="M32.3711 36.9605C32.3711 36.9605 48.5402 44.7495 50.3704 50.3861C50.3704 50.3995 57.8929 42.7585 32.3711 36.9605Z" fill="#E50000"/>
<path d="M50.3704 50.3995C50.3704 50.3995 51.4512 45.893 46.0615 42.6913C40.6718 39.4896 32.3711 36.9605 32.3711 36.9605C57.8929 42.7585 50.3704 50.3995 50.3704 50.3995Z" fill="#B61E23"/>
<path d="M26.7796 27.6245C26.7796 27.6245 20.9143 30.7724 23.3354 34.8485C25.7564 38.9245 40.225 42.8661 40.225 42.8661C40.225 42.8661 23.5227 36.0323 26.7796 27.6245Z" fill="#E50000"/>
<path d="M23.3354 34.8485C20.9143 30.7724 26.7796 27.6245 26.7796 27.6245C26.7796 27.6245 22.8742 31.8351 25.5835 35.3597C28.2495 38.8304 40.225 42.8527 40.225 42.8527C40.225 42.8527 25.7564 38.9245 23.3354 34.8485Z" fill="#B61E23"/>
<path d="M22.8016 34.4987C22.8016 34.4987 18.9683 39.1667 22.6143 41.8706C26.2602 44.5611 40.2244 43.0948 40.2244 43.0948C40.2244 43.0948 23.2339 42.8123 22.8016 34.4987Z" fill="#E50000"/>
<path d="M22.6143 41.8706C18.9683 39.1802 22.8016 34.4987 22.8016 34.4987C22.8016 34.4987 21.0579 39.4223 24.7471 41.5612C28.3786 43.6464 40.2244 43.0948 40.2244 43.0948C40.2244 43.0948 26.2746 44.5611 22.6143 41.8706Z" fill="#B61E23"/>
<path d="M22.1681 42.4356C22.1681 42.4356 20.8999 47.682 25.0359 48.6102C29.1718 49.5385 40.1386 43.3369 40.1386 43.3369C40.1386 43.3369 25.9438 49.1752 22.1681 42.4356Z" fill="#E50000"/>
<path d="M25.0359 48.6102C20.8999 47.682 22.1681 42.4356 22.1681 42.4356C22.1681 42.4356 22.7445 47.1439 26.6787 47.5879C30.5409 48.0318 40.1386 43.3369 40.1386 43.3369C40.1386 43.3369 29.1718 49.5385 25.0359 48.6102Z" fill="#B61E23"/>
<path d="M24.4165 48.9197C24.4165 48.9197 25.3964 53.8567 29.3018 53.2514C33.2216 52.6326 40.2109 43.5522 40.2109 43.5522C40.2109 43.5522 30.3106 53.4263 24.4165 48.9197Z" fill="#E50000"/>
<path d="M29.316 53.238C25.3962 53.8568 24.4307 48.9063 24.4307 48.9063C24.4307 48.9063 26.7796 52.7537 30.3247 51.7986C33.8266 50.8569 40.2251 43.5388 40.2251 43.5388C40.2251 43.5388 33.2358 52.6326 29.316 53.238Z" fill="#B61E23"/>
<path d="M65.3868 27.6245C65.3868 27.6245 71.2521 30.7724 68.831 34.8485C66.41 38.9245 51.9414 42.8661 51.9414 42.8661C51.9414 42.8661 68.6437 36.0323 65.3868 27.6245Z" fill="#E50000"/>
<path d="M68.831 34.8485C71.2521 30.7724 65.3868 27.6245 65.3868 27.6245C65.3868 27.6245 69.2922 31.8351 66.5829 35.3597C63.9169 38.8304 51.9414 42.8527 51.9414 42.8527C51.9414 42.8527 66.41 38.9245 68.831 34.8485Z" fill="#B61E23"/>
<path d="M69.3642 34.4987C69.3642 34.4987 73.1976 39.1667 69.5516 41.8706C65.9056 44.5611 51.9414 43.0948 51.9414 43.0948C51.9414 43.0948 68.9319 42.8123 69.3642 34.4987Z" fill="#E50000"/>
<path d="M69.5516 41.8706C73.1976 39.1802 69.3642 34.4987 69.3642 34.4987C69.3642 34.4987 71.108 39.4223 67.4188 41.5612C63.7872 43.6464 51.9414 43.0948 51.9414 43.0948C51.9414 43.0948 65.9056 44.5611 69.5516 41.8706Z" fill="#B61E23"/>
<path d="M69.9978 42.4357C69.9978 42.4357 71.266 47.6821 67.13 48.6103C62.9941 49.5385 52.0273 43.337 52.0273 43.337C52.0273 43.337 66.2365 49.1753 69.9978 42.4357Z" fill="#E50000"/>
<path d="M67.13 48.6103C71.266 47.6821 69.9978 42.4357 69.9978 42.4357C69.9978 42.4357 69.4213 47.144 65.4872 47.5879C61.625 48.0319 52.0273 43.337 52.0273 43.337C52.0273 43.337 63.0085 49.5385 67.13 48.6103Z" fill="#B61E23"/>
<path d="M67.75 48.9197C67.75 48.9197 66.77 53.8567 62.8647 53.2514C58.9449 52.6326 51.9556 43.5522 51.9556 43.5522C51.9556 43.5522 61.8559 53.4263 67.75 48.9197Z" fill="#E50000"/>
<path d="M62.8505 53.238C66.7703 53.8568 67.7358 48.9063 67.7358 48.9063C67.7358 48.9063 65.3868 52.7537 61.8417 51.7986C58.3399 50.8569 51.9414 43.5388 51.9414 43.5388C51.9414 43.5388 58.9307 52.6326 62.8505 53.238Z" fill="#B61E23"/>
<path d="M43.7839 49.7941C43.7839 49.7941 33.5521 65.224 28.0039 65.789C27.9895 65.789 33.653 75.7707 43.7839 49.7941Z" fill="#E50000"/>
<path d="M27.9897 65.789C27.9897 65.789 31.9528 68.076 35.9158 63.0717C39.8788 58.0674 43.7697 49.7941 43.7697 49.7941C33.6532 75.7707 27.9897 65.789 27.9897 65.789Z" fill="#B61E23"/>
<path d="M44.6635 52.3366C44.6635 52.3366 43.3233 64.094 40.6573 66.5289C40.6428 66.5155 46.0037 69.3943 44.6635 52.3366Z" fill="#B61E23"/>
<path d="M38.3374 68.7083C38.3374 68.7083 41.3493 68.2778 42.7183 63.5964C44.073 58.9015 44.635 52.3367 44.635 52.3367C44.1738 72.0311 38.3374 68.7083 38.3374 68.7083Z" fill="#E50000"/>
<path d="M46.8684 67.0266C46.8684 67.0266 52.6472 66.7172 52.5319 61.417C52.4167 56.1033 43.0928 45.0319 43.0928 45.0319C43.0928 45.0319 52.8922 60.1255 46.8684 67.0266Z" fill="#E50000"/>
<path d="M52.5463 61.417C52.6616 66.7307 46.8828 67.0266 46.8828 67.0266C46.8828 67.0266 51.624 64.6859 51.062 59.7892C50.5144 54.9733 43.1216 45.0319 43.1216 45.0319C43.1216 45.0319 52.4311 56.1033 52.5463 61.417Z" fill="#B61E23"/>
<path fill-rule="evenodd" clip-rule="evenodd" d="M38.8124 25.7815C37.0255 30.5975 37.501 34.6467 40.2535 37.9156C35.2529 34.4853 34.763 30.4361 38.8124 25.7815Z" fill="#E50000"/>
<path fill-rule="evenodd" clip-rule="evenodd" d="M44.7499 23.1718C43.7844 27.786 44.0726 32.3732 45.6001 36.9336C42.2712 32.1849 41.9974 27.5976 44.7499 23.1718Z" fill="#B61E23"/>
</g>
<defs>
<clipPath id="clip0_431_2866">
<rect width="50.8817" height="45.6349" fill="white" transform="translate(20.5483 23.8095)"/>
</clipPath>
</defs>
</svg>
